<svg xmlns="http://www.w3.org/2000/svg" viewBox="0 0 68652.0 25652.0" width="1200" height="448"><rect width="100%" height="100%" fill="#141414"/><path d="M46526.00,23126.00L2526.00,23126.00L2526.00,2526.00L46526.00,2526.00L46526.00,23126.00Z" fill="#1e3c1e" stroke="#b4dcb4" stroke-width="0.5"/><path d="M17052.70,14987.60L17052.70,14425.00Z" fill="none" stroke="#c83c3c" stroke-width="205.96" stroke-linecap="round" stroke-linejoin="round"/><path d="M16715.30,15325.00L17052.70,14987.60Z" fill="none" stroke="#c83c3c" stroke-width="205.96" stroke-linecap="round" stroke-linejoin="round"/><path d="M16026.00,15325.00L16715.30,15325.00Z" fill="none" stroke="#c83c3c" stroke-width="205.96" stroke-linecap="round" stroke-linejoin="round"/><path d="M16026.00,14425.00L17052.70,14425.00Z" fill="none" stroke="#c83c3c" stroke-width="205.96" stroke-linecap="round" stroke-linejoin="round"/><path d="M20309.30,19608.30L16026.00,15325.00Z" fill="none" stroke="#3c78dc" stroke-width="205.96" stroke-linecap="round" stroke-linejoin="round"/><path d="M21858.90,19608.30L20309.30,19608.30Z" fill="none" stroke="#3c78dc" stroke-width="205.96" stroke-linecap="round" stroke-linejoin="round"/><path d="M23213.50,18253.70L21858.90,19608.30Z" fill="none" stroke="#3c78dc" stroke-width="205.96" stroke-linecap="round" stroke-linejoin="round"/><path d="M23213.50,14312.50L23213.50,18253.70Z" fill="none" stroke="#3c78dc" stroke-width="205.96" stroke-linecap="round" stroke-linejoin="round"/><path d="M27974.30,4626.00L35326.00,4626.00Z" fill="none" stroke="#3c78dc" stroke-width="205.96" stroke-linecap="round" stroke-linejoin="round"/><path d="M22651.00,9949.30L27974.30,4626.00Z" fill="none" stroke="#3c78dc" stroke-width="205.96" stroke-linecap="round" stroke-linejoin="round"/><path d="M22651.00,11437.50L22651.00,9949.30Z" fill="none" stroke="#3c78dc" stroke-width="205.96" stroke-linecap="round" stroke-linejoin="round"/><path d="M22713.50,11437.50L22651.00,11437.50L22213.50,11437.50Z" fill="none" stroke="#3c78dc" stroke-width="205.96" stroke-linecap="round" stroke-linejoin="round"/><path d="M36977.70,5226.00L36377.70,4626.00Z" fill="none" stroke="#c83c3c" stroke-width="205.96" stroke-linecap="round" stroke-linejoin="round"/><path d="M40326.00,5226.00L36977.70,5226.00Z" fill="none" stroke="#c83c3c" stroke-width="205.96" stroke-linecap="round" stroke-linejoin="round"/><path d="M35326.00,4626.00L36377.70,4626.00Z" fill="none" stroke="#c83c3c" stroke-width="205.96" stroke-linecap="round" stroke-linejoin="round"/><path d="M31833.00,18726.00L37146.00,13413.00Z" fill="none" stroke="#c83c3c" stroke-width="205.96" stroke-linecap="round" stroke-linejoin="round"/><path d="M26426.00,18726.00L31833.00,18726.00Z" fill="none" stroke="#c83c3c" stroke-width="205.96" stroke-linecap="round" stroke-linejoin="round"/><path d="M31941.80,13413.00L31011.00,14343.80Z" fill="none" stroke="#c83c3c" stroke-width="205.96" stroke-linecap="round" stroke-linejoin="round"/><path d="M34871.00,13413.00L31941.80,13413.00Z" fill="none" stroke="#c83c3c" stroke-width="205.96" stroke-linecap="round" stroke-linejoin="round"/><path d="M31011.00,15270.50L31011.00,14343.80Z" fill="none" stroke="#c83c3c" stroke-width="205.96" stroke-linecap="round" stroke-linejoin="round"/><path d="M15432.50,4049.20L15432.00,4049.70Z" fill="none" stroke="#c83c3c" stroke-width="205.96" stroke-linecap="round" stroke-linejoin="round"/><path d="M17389.30,4049.20L15432.50,4049.20Z" fill="none" stroke="#c83c3c" stroke-width="205.96" stroke-linecap="round" stroke-linejoin="round"/><path d="M15459.50,6774.50L15459.00,6775.00Z" fill="none" stroke="#c83c3c" stroke-width="205.96" stroke-linecap="round" stroke-linejoin="round"/><path d="M17393.30,6774.50L15459.50,6774.50Z" fill="none" stroke="#c83c3c" stroke-width="205.96" stroke-linecap="round" stroke-linejoin="round"/><path d="M39063.00,12463.00L39126.00,12526.00Z" fill="none" stroke="#c83c3c" stroke-width="205.96" stroke-linecap="round" stroke-linejoin="round"/><path d="M37146.00,12463.00L39063.00,12463.00Z" fill="none" stroke="#c83c3c" stroke-width="205.96" stroke-linecap="round" stroke-linejoin="round"/><path d="M22345.60,20528.60L23501.00,21684.00Z" fill="none" stroke="#c83c3c" stroke-width="205.96" stroke-linecap="round" stroke-linejoin="round"/><path d="M22345.60,18375.70L22345.60,20528.60Z" fill="none" stroke="#c83c3c" stroke-width="205.96" stroke-linecap="round" stroke-linejoin="round"/><path d="M21813.40,17843.50L22345.60,18375.70Z" fill="none" stroke="#c83c3c" stroke-width="205.96" stroke-linecap="round" stroke-linejoin="round"/><path d="M21813.40,16970.20L21813.40,17843.50Z" fill="none" stroke="#c83c3c" stroke-width="205.96" stroke-linecap="round" stroke-linejoin="round"/><path d="M22169.40,16614.20L21813.40,16970.20Z" fill="none" stroke="#c83c3c" stroke-width="205.96" stroke-linecap="round" stroke-linejoin="round"/><path d="M32872.00,16614.20L22169.40,16614.20Z" fill="none" stroke="#c83c3c" stroke-width="205.96" stroke-linecap="round" stroke-linejoin="round"/><path d="M35814.50,13671.70L32872.00,16614.20Z" fill="none" stroke="#c83c3c" stroke-width="205.96" stroke-linecap="round" stroke-linejoin="round"/><path d="M35814.50,13541.00L35814.50,13671.70Z" fill="none" stroke="#c83c3c" stroke-width="205.96" stroke-linecap="round" stroke-linejoin="round"/><path d="M36892.50,12463.00L35814.50,13541.00Z" fill="none" stroke="#c83c3c" stroke-width="205.96" stroke-linecap="round" stroke-linejoin="round"/><path d="M37146.00,12463.00L36892.50,12463.00Z" fill="none" stroke="#c83c3c" stroke-width="205.96" stroke-linecap="round" stroke-linejoin="round"/><path d="M37177.70,17976.00L36627.70,18526.00Z" fill="none" stroke="#c83c3c" stroke-width="300.00" stroke-linecap="round" stroke-linejoin="round"/><path d="M40326.00,17976.00L37177.70,17976.00Z" fill="none" stroke="#c83c3c" stroke-width="300.00" stroke-linecap="round" stroke-linejoin="round"/><path d="M36076.90,18526.00L35998.10,18526.00Z" fill="none" stroke="#c83c3c" stroke-width="300.00" stroke-linecap="round" stroke-linejoin="round"/><path d="M35526.00,18526.00L35998.10,18526.00Z" fill="none" stroke="#c83c3c" stroke-width="300.00" stroke-linecap="round" stroke-linejoin="round"/><path d="M36076.90,18526.00L36627.70,18526.00Z" fill="none" stroke="#c83c3c" stroke-width="300.00" stroke-linecap="round" stroke-linejoin="round"/><path d="M24298.90,19523.90L23501.00,18726.00Z" fill="none" stroke="#c83c3c" stroke-width="300.00" stroke-linecap="round" stroke-linejoin="round"/><path d="M35000.20,19523.90L24298.90,19523.90Z" fill="none" stroke="#c83c3c" stroke-width="300.00" stroke-linecap="round" stroke-linejoin="round"/><path d="M35998.10,18526.00L35000.20,19523.90Z" fill="none" stroke="#c83c3c" stroke-width="300.00" stroke-linecap="round" stroke-linejoin="round"/><path d="M23501.00,18326.70L23501.00,18726.00Z" fill="none" stroke="#c83c3c" stroke-width="300.00" stroke-linecap="round" stroke-linejoin="round"/><path d="M22450.50,17276.20L23501.00,18326.70Z" fill="none" stroke="#c83c3c" stroke-width="300.00" stroke-linecap="round" stroke-linejoin="round"/><path d="M22450.50,14312.50L22450.50,17276.20Z" fill="none" stroke="#3c78dc" stroke-width="300.00" stroke-linecap="round" stroke-linejoin="round"/><path d="M22213.50,14312.50L22450.50,14312.50L22713.50,14312.50Z" fill="none" stroke="#3c78dc" stroke-width="300.00" stroke-linecap="round" stroke-linejoin="round"/><path d="M20616.80,12625.00L21026.00,12625.00Z" fill="none" stroke="#3c78dc" stroke-width="205.96" stroke-linecap="round" stroke-linejoin="round"/><path d="M19466.10,11474.30L20616.80,12625.00Z" fill="none" stroke="#3c78dc" stroke-width="205.96" stroke-linecap="round" stroke-linejoin="round"/><path d="M19466.10,8518.10L19466.10,11474.30Z" fill="none" stroke="#3c78dc" stroke-width="205.96" stroke-linecap="round" stroke-linejoin="round"/><path d="M18689.30,5009.80L18689.30,4214.20Z" fill="none" stroke="#3c78dc" stroke-width="205.96" stroke-linecap="round" stroke-linejoin="round"/><path d="M19527.00,5847.50L18689.30,5009.80Z" fill="none" stroke="#3c78dc" stroke-width="205.96" stroke-linecap="round" stroke-linejoin="round"/><path d="M19824.30,4214.20L19989.30,4049.20Z" fill="none" stroke="#c83c3c" stroke-width="205.96" stroke-linecap="round" stroke-linejoin="round"/><path d="M18689.30,4214.20L19824.30,4214.20Z" fill="none" stroke="#c83c3c" stroke-width="205.96" stroke-linecap="round" stroke-linejoin="round"/><path d="M26399.50,11003.00L28896.00,11003.00Z" fill="none" stroke="#c83c3c" stroke-width="205.96" stroke-linecap="round" stroke-linejoin="round"/><path d="M24612.40,12625.00L23901.00,12625.00Z" fill="none" stroke="#3c78dc" stroke-width="205.96" stroke-linecap="round" stroke-linejoin="round"/><path d="M25452.80,11784.60L24612.40,12625.00Z" fill="none" stroke="#3c78dc" stroke-width="205.96" stroke-linecap="round" stroke-linejoin="round"/><path d="M21713.50,9862.20L21713.50,11437.50Z" fill="none" stroke="#3c78dc" stroke-width="205.96" stroke-linecap="round" stroke-linejoin="round"/><path d="M20603.40,8752.10L21713.50,9862.20Z" fill="none" stroke="#3c78dc" stroke-width="205.96" stroke-linecap="round" stroke-linejoin="round"/><path d="M19993.30,7714.40L19993.30,6774.50Z" fill="none" stroke="#c83c3c" stroke-width="205.96" stroke-linecap="round" stroke-linejoin="round"/><path d="M20086.20,7807.30L19993.30,7714.40Z" fill="none" stroke="#c83c3c" stroke-width="205.96" stroke-linecap="round" stroke-linejoin="round"/><path d="M23901.00,11355.10L23901.00,12125.00Z" fill="none" stroke="#3c78dc" stroke-width="300.00" stroke-linecap="round" stroke-linejoin="round"/><path d="M24122.80,11133.30L23901.00,11355.10Z" fill="none" stroke="#3c78dc" stroke-width="300.00" stroke-linecap="round" stroke-linejoin="round"/><path d="M23901.00,13125.00L24264.10,13125.00Z" fill="none" stroke="#3c78dc" stroke-width="300.00" stroke-linecap="round" stroke-linejoin="round"/><path d="M24852.10,13449.80L24892.50,13490.20Z" fill="none" stroke="#3c78dc" stroke-width="300.00" stroke-linecap="round" stroke-linejoin="round"/><path d="M19943.00,13490.20L18874.00,14559.20Z" fill="none" stroke="#c83c3c" stroke-width="300.00" stroke-linecap="round" stroke-linejoin="round"/><path d="M24892.50,13490.20L19943.00,13490.20Z" fill="none" stroke="#c83c3c" stroke-width="300.00" stroke-linecap="round" stroke-linejoin="round"/><path d="M20091.80,14559.20L21026.00,13625.00Z" fill="none" stroke="#3c78dc" stroke-width="300.00" stroke-linecap="round" stroke-linejoin="round"/><path d="M18874.00,14559.20L20091.80,14559.20Z" fill="none" stroke="#3c78dc" stroke-width="300.00" stroke-linecap="round" stroke-linejoin="round"/><path d="M5071.40,4049.70L4852.70,3831.00Z" fill="none" stroke="#c83c3c" stroke-width="300.00" stroke-linecap="round" stroke-linejoin="round"/><path d="M12474.00,4049.70L5071.40,4049.70Z" fill="none" stroke="#c83c3c" stroke-width="300.00" stroke-linecap="round" stroke-linejoin="round"/><path d="M3751.00,3831.00L4852.70,3831.00Z" fill="none" stroke="#c83c3c" stroke-width="300.00" stroke-linecap="round" stroke-linejoin="round"/><path d="M9783.20,6775.00L12501.00,6775.00Z" fill="none" stroke="#c83c3c" stroke-width="300.00" stroke-linecap="round" stroke-linejoin="round"/><path d="M12309.50,4214.20L12474.00,4049.70Z" fill="none" stroke="#c83c3c" stroke-width="300.00" stroke-linecap="round" stroke-linejoin="round"/><path d="M10908.20,4214.20L12309.50,4214.20Z" fill="none" stroke="#c83c3c" stroke-width="300.00" stroke-linecap="round" stroke-linejoin="round"/><path d="M9893.00,10445.00L9893.00,10442.50Z" fill="none" stroke="#c83c3c" stroke-width="300.00" stroke-linecap="round" stroke-linejoin="round"/><path d="M11450.30,15255.00L9893.00,15255.00Z" fill="none" stroke="#c83c3c" stroke-width="300.00" stroke-linecap="round" stroke-linejoin="round"/><path d="M11709.10,15513.80L11450.30,15255.00Z" fill="none" stroke="#c83c3c" stroke-width="300.00" stroke-linecap="round" stroke-linejoin="round"/><path d="M11709.10,10987.50L11836.80,10987.50Z" fill="none" stroke="#c83c3c" stroke-width="300.00" stroke-linecap="round" stroke-linejoin="round"/><path d="M12893.50,10987.50L11836.80,10987.50Z" fill="none" stroke="#c83c3c" stroke-width="300.00" stroke-linecap="round" stroke-linejoin="round"/><path d="M13126.00,11220.00L12893.50,10987.50Z" fill="none" stroke="#c83c3c" stroke-width="300.00" stroke-linecap="round" stroke-linejoin="round"/><path d="M11394.70,10545.40L11394.70,10445.00Z" fill="none" stroke="#c83c3c" stroke-width="300.00" stroke-linecap="round" stroke-linejoin="round"/><path d="M11836.80,10987.50L11394.70,10545.40Z" fill="none" stroke="#c83c3c" stroke-width="300.00" stroke-linecap="round" stroke-linejoin="round"/><path d="M11709.10,10987.50L11709.10,15513.80Z" fill="none" stroke="#3c78dc" stroke-width="300.00" stroke-linecap="round" stroke-linejoin="round"/><path d="M9893.00,10445.00L11394.70,10445.00Z" fill="none" stroke="#c83c3c" stroke-width="300.00" stroke-linecap="round" stroke-linejoin="round"/><path d="M24852.10,13449.80L24654.70,13449.80Z" fill="none" stroke="#3c78dc" stroke-width="250.20" stroke-linecap="round" stroke-linejoin="round"/><path d="M24654.70,13125.00L24654.70,13449.80Z" fill="none" stroke="#3c78dc" stroke-width="300.00" stroke-linecap="round" stroke-linejoin="round"/><path d="M24654.70,13125.00L24264.10,13125.00Z" fill="none" stroke="#3c78dc" stroke-width="250.20" stroke-linecap="round" stroke-linejoin="round"/><path d="M9677.60,7279.70L10908.20,7279.70Z" fill="none" stroke="#3c78dc" stroke-width="300.00" stroke-linecap="round" stroke-linejoin="round"/><path d="M10908.20,4214.20L10908.20,7279.70Z" fill="none" stroke="#3c78dc" stroke-width="300.00" stroke-linecap="round" stroke-linejoin="round"/><path d="M10908.20,10186.60L11709.10,10987.50Z" fill="none" stroke="#3c78dc" stroke-width="300.00" stroke-linecap="round" stroke-linejoin="round"/><path d="M10908.20,7279.70L10908.20,10186.60Z" fill="none" stroke="#3c78dc" stroke-width="300.00" stroke-linecap="round" stroke-linejoin="round"/><path d="M25804.60,12497.30L24852.10,13449.80Z" fill="none" stroke="#3c78dc" stroke-width="300.00" stroke-linecap="round" stroke-linejoin="round"/><path d="M25804.60,11604.60L25804.60,12497.30Z" fill="none" stroke="#3c78dc" stroke-width="300.00" stroke-linecap="round" stroke-linejoin="round"/><path d="M25063.70,10863.70L25804.60,11604.60Z" fill="none" stroke="#3c78dc" stroke-width="300.00" stroke-linecap="round" stroke-linejoin="round"/><path d="M24456.60,10863.70L25063.70,10863.70Z" fill="none" stroke="#3c78dc" stroke-width="300.00" stroke-linecap="round" stroke-linejoin="round"/><path d="M23213.50,10260.10L23213.50,11437.50Z" fill="none" stroke="#3c78dc" stroke-width="205.96" stroke-linecap="round" stroke-linejoin="round"/><path d="M23294.10,10179.50L23213.50,10260.10Z" fill="none" stroke="#3c78dc" stroke-width="205.96" stroke-linecap="round" stroke-linejoin="round"/><path d="M40087.70,21066.00L40326.00,20827.70Z" fill="none" stroke="#c83c3c" stroke-width="300.00" stroke-linecap="round" stroke-linejoin="round"/><path d="M35526.00,21066.00L40087.70,21066.00Z" fill="none" stroke="#c83c3c" stroke-width="300.00" stroke-linecap="round" stroke-linejoin="round"/><path d="M40326.00,19976.00L40326.00,20827.70Z" fill="none" stroke="#c83c3c" stroke-width="300.00" stroke-linecap="round" stroke-linejoin="round"/><path d="M41156.00,11363.00L42319.00,12526.00Z" fill="none" stroke="#c83c3c" stroke-width="300.00" stroke-linecap="round" stroke-linejoin="round"/><path d="M37146.00,11363.00L41156.00,11363.00Z" fill="none" stroke="#c83c3c" stroke-width="300.00" stroke-linecap="round" stroke-linejoin="round"/><path d="M36696.00,10913.00L37146.00,11363.00Z" fill="none" stroke="#c83c3c" stroke-width="300.00" stroke-linecap="round" stroke-linejoin="round"/><path d="M33283.20,10913.00L36696.00,10913.00Z" fill="none" stroke="#c83c3c" stroke-width="300.00" stroke-linecap="round" stroke-linejoin="round"/><path d="M37146.00,11363.00L37146.00,11513.00Z" fill="none" stroke="#c83c3c" stroke-width="300.00" stroke-linecap="round" stroke-linejoin="round"/><path d="M31335.00,19746.80L31774.70,20186.50Z" fill="none" stroke="#3c78dc" stroke-width="300.00" stroke-linecap="round" stroke-linejoin="round"/><path d="M31335.00,12463.00L31335.00,19746.80Z" fill="none" stroke="#3c78dc" stroke-width="300.00" stroke-linecap="round" stroke-linejoin="round"/><path d="M32654.20,21066.00L35526.00,21066.00Z" fill="none" stroke="#c83c3c" stroke-width="300.00" stroke-linecap="round" stroke-linejoin="round"/><path d="M31774.70,20186.50L32654.20,21066.00Z" fill="none" stroke="#c83c3c" stroke-width="300.00" stroke-linecap="round" stroke-linejoin="round"/><path d="M32263.40,11513.00L34871.00,11513.00Z" fill="none" stroke="#c83c3c" stroke-width="205.96" stroke-linecap="round" stroke-linejoin="round"/><path d="M31031.00,10280.60L32263.40,11513.00Z" fill="none" stroke="#c83c3c" stroke-width="205.96" stroke-linecap="round" stroke-linejoin="round"/><path d="M23901.00,14907.60L24014.80,15021.40Z" fill="none" stroke="#3c78dc" stroke-width="205.96" stroke-linecap="round" stroke-linejoin="round"/><path d="M23901.00,13625.00L23901.00,14907.60Z" fill="none" stroke="#3c78dc" stroke-width="205.96" stroke-linecap="round" stroke-linejoin="round"/><path d="M24014.80,15010.20L24014.80,15021.40Z" fill="none" stroke="#c83c3c" stroke-width="205.96" stroke-linecap="round" stroke-linejoin="round"/><path d="M24814.50,14210.50L24014.80,15010.20Z" fill="none" stroke="#c83c3c" stroke-width="205.96" stroke-linecap="round" stroke-linejoin="round"/><path d="M21703.30,18869.70L21599.50,18973.50Z" fill="none" stroke="#3c78dc" stroke-width="205.96" stroke-linecap="round" stroke-linejoin="round"/><path d="M21703.30,15521.40L21703.30,18869.70Z" fill="none" stroke="#3c78dc" stroke-width="205.96" stroke-linecap="round" stroke-linejoin="round"/><path d="M19735.60,18973.50L19608.10,18846.00Z" fill="none" stroke="#c83c3c" stroke-width="205.96" stroke-linecap="round" stroke-linejoin="round"/><path d="M21599.50,18973.50L19735.60,18973.50Z" fill="none" stroke="#c83c3c" stroke-width="205.96" stroke-linecap="round" stroke-linejoin="round"/><path d="M22203.30,15021.40L21703.30,15521.40Z" fill="none" stroke="#c83c3c" stroke-width="205.96" stroke-linecap="round" stroke-linejoin="round"/><path d="M24014.80,15021.40L22203.30,15021.40Z" fill="none" stroke="#c83c3c" stroke-width="205.96" stroke-linecap="round" stroke-linejoin="round"/><path d="M16626.00,18826.00L16526.00,18826.00L16426.00,18826.00L16326.00,18826.00L16226.00,18826.00L16126.00,18826.00L16026.00,18826.00L15926.00,18826.00L15826.00,18826.00L15726.00,18826.00L15626.00,18826.00L15526.00,18826.00L15426.00,18826.00L15326.00,18826.00L15226.00,18826.00L15126.00,18826.00L15026.00,18826.00L14926.00,18826.00L14826.00,18826.00L14726.00,18826.00L14626.00,18826.00L14526.00,18826.00L14426.00,18826.00L14326.00,18826.00L14226.00,18826.00L14126.00,18826.00L14026.00,18826.00L13926.00,18826.00L13826.00,18826.00L13726.00,18826.00L13626.00,18826.00L13526.00,18826.00L13426.00,18826.00L13326.00,18826.00L13226.00,18826.00L13126.00,18826.00L13026.00,18826.00L12926.00,18826.00L12826.00,18826.00L12726.00,18826.00L12626.00,18826.00L12526.00,18826.00L12426.00,18826.00L12326.00,18826.00L12226.00,18826.00L12126.00,18826.00L12026.00,18826.00L11926.00,18826.00Z" fill="none" stroke="#c83c3c" stroke-width="205.96" stroke-linecap="round" stroke-linejoin="round"/><path d="M11926.00,18826.00L11826.00,18826.00L11726.00,18826.00L11626.00,18826.00L11526.00,18826.00L11426.00,18826.00L11326.00,18826.00L11226.00,18826.00L11126.00,18826.00L11026.00,18826.00L10926.00,18826.00L10826.00,18826.00L10726.00,18826.00L10626.00,18826.00L10526.00,18826.00L10426.00,18826.00L10326.00,18826.00L10226.00,18826.00L10126.00,18826.00L10026.00,18826.00L9926.00,18826.00L9926.00,18726.00L9926.00,18626.00L9926.00,18526.00L9926.00,18426.00L9926.00,18326.00L9926.00,18226.00L9926.00,18126.00L9926.00,18026.00L9926.00,17926.00L9926.00,17826.00L9926.00,17726.00L9926.00,17626.00L9926.00,17526.00L9926.00,17426.00L9926.00,17326.00L9926.00,17226.00L9926.00,17126.00L9926.00,17026.00L9926.00,16926.00L9926.00,16826.00L9926.00,16726.00L9926.00,16626.00L9926.00,16526.00L9926.00,16426.00L9926.00,16326.00L9926.00,16226.00L9926.00,16126.00L9926.00,16026.00Z" fill="none" stroke="#c83c3c" stroke-width="205.96" stroke-linecap="round" stroke-linejoin="round"/><path d="M9926.00,17126.00L9826.00,17126.00L9726.00,17126.00L9626.00,17126.00L9526.00,17126.00L9426.00,17126.00L9326.00,17126.00L9226.00,17126.00L9126.00,17126.00L9026.00,17126.00L8926.00,17126.00L8826.00,17126.00L8726.00,17126.00L8626.00,17126.00L8526.00,17126.00L8426.00,17126.00L8326.00,17126.00Z" fill="none" stroke="#c83c3c" stroke-width="205.96" stroke-linecap="round" stroke-linejoin="round"/><path d="M13126.00,18826.00L13126.00,18726.00L13126.00,18626.00L13126.00,18526.00L13126.00,18426.00L13126.00,18326.00L13126.00,18226.00L13126.00,18126.00L13126.00,18026.00L13126.00,17926.00L13126.00,17826.00L13126.00,17726.00L13126.00,17626.00L13126.00,17526.00L13126.00,17426.00L13126.00,17326.00L13126.00,17226.00L13126.00,17126.00L13126.00,17026.00L13126.00,16926.00L13126.00,16826.00L13126.00,16726.00L13126.00,16626.00L13126.00,16526.00L13126.00,16426.00L13126.00,16326.00L13126.00,16226.00L13126.00,16126.00L13126.00,16026.00L13126.00,15926.00L13126.00,15826.00L13126.00,15726.00L13126.00,15626.00L13126.00,15526.00L13126.00,15426.00L13126.00,15326.00L13126.00,15226.00L13126.00,15126.00L13126.00,15026.00L13126.00,14926.00L13126.00,14826.00L13126.00,14726.00L13126.00,14626.00L13126.00,14526.00L13126.00,14426.00Z" fill="none" stroke="#c83c3c" stroke-width="205.96" stroke-linecap="round" stroke-linejoin="round"/><path d="M8326.00,17126.00L8226.00,17126.00L8126.00,17126.00L8026.00,17126.00L7926.00,17126.00L7826.00,17126.00L7726.00,17126.00L7626.00,17126.00L7526.00,17126.00L7426.00,17126.00L7326.00,17126.00L7226.00,17126.00L7126.00,17126.00L7026.00,17126.00L6926.00,17126.00L6826.00,17126.00L6726.00,17126.00L6626.00,17126.00L6526.00,17126.00L6426.00,17126.00L6326.00,17126.00L6226.00,17126.00L6126.00,17126.00L6026.00,17126.00L5926.00,17126.00L5826.00,17126.00L5726.00,17126.00L5626.00,17126.00L5526.00,17126.00L5426.00,17126.00L5326.00,17126.00L5226.00,17126.00L5126.00,17126.00L5026.00,17126.00L4926.00,17126.00L4826.00,17126.00L4726.00,17126.00L4626.00,17126.00L4526.00,17126.00L4426.00,17126.00L4326.00,17126.00L4226.00,17126.00L4126.00,17126.00Z" fill="none" stroke="#c83c3c" stroke-width="205.96" stroke-linecap="round" stroke-linejoin="round"/><path d="M13126.00,14426.00L13226.00,14426.00L13326.00,14426.00L13426.00,14426.00L13526.00,14426.00L13626.00,14426.00L13726.00,14426.00L13826.00,14426.00L13926.00,14426.00L14026.00,14426.00L14126.00,14426.00L14226.00,14426.00L14326.00,14426.00L14426.00,14426.00L14526.00,14426.00L14626.00,14426.00L14726.00,14426.00L14826.00,14426.00L14926.00,14426.00L15026.00,14426.00L15126.00,14426.00L15226.00,14426.00L15326.00,14426.00L15426.00,14426.00L15526.00,14426.00L15626.00,14426.00L15726.00,14426.00L15826.00,14426.00L15926.00,14426.00L15926.00,14326.00L16026.00,14326.00L16026.00,14226.00L16026.00,14126.00L16026.00,14026.00L16026.00,13926.00L16026.00,13826.00L16026.00,13726.00L16026.00,13626.00L16026.00,13526.00L16026.00,13426.00L16026.00,13326.00L16026.00,13226.00L16026.00,13126.00L16026.00,13026.00L16026.00,12926.00L16026.00,12826.00L16026.00,12726.00L16026.00,12626.00L16026.00,12526.00L16026.00,12426.00L16026.00,12326.00L16026.00,12226.00L16026.00,12126.00L16026.00,12026.00L16026.00,11926.00L16026.00,11826.00L16026.00,11726.00L16026.00,11626.00L16026.00,11526.00L16026.00,11426.00L16026.00,11326.00L16026.00,11226.00Z" fill="none" stroke="#c83c3c" stroke-width="205.96" stroke-linecap="round" stroke-linejoin="round"/><path d="M16026.00,11226.00L16026.00,11126.00L16026.00,11026.00L16026.00,10926.00L16026.00,10826.00L16026.00,10726.00L16026.00,10626.00L16026.00,10526.00L16026.00,10426.00L16026.00,10326.00Z" fill="none" stroke="#c83c3c" stroke-width="205.96" stroke-linecap="round" stroke-linejoin="round"/><path d="M4126.00,17126.00L4026.00,17126.00L3926.00,17126.00L3826.00,17126.00L3726.00,17126.00L3726.00,17226.00L3726.00,17326.00L3726.00,17426.00L3726.00,17526.00L3726.00,17626.00L3726.00,17726.00L3726.00,17826.00L3726.00,17926.00L3726.00,18026.00L3726.00,18126.00L3726.00,18226.00L3726.00,18326.00L3726.00,18426.00L3726.00,18526.00L3726.00,18626.00L3726.00,18726.00L3726.00,18826.00L3726.00,18926.00L3726.00,19026.00L3726.00,19126.00L3726.00,19226.00L3726.00,19326.00L3726.00,19426.00L3726.00,19526.00L3726.00,19626.00L3726.00,19726.00L3726.00,19826.00L3726.00,19926.00L3726.00,20026.00L3726.00,20126.00L3726.00,20226.00L3726.00,20326.00L3726.00,20426.00L3726.00,20526.00L3726.00,20626.00L3726.00,20726.00L3726.00,20826.00L3726.00,20926.00L3726.00,21026.00L3726.00,21126.00L3726.00,21226.00L3726.00,21326.00L3726.00,21426.00L3726.00,21526.00L3726.00,21626.00L3726.00,21726.00L3726.00,21826.00L3726.00,21926.00Z" fill="none" stroke="#c83c3c" stroke-width="205.96" stroke-linecap="round" stroke-linejoin="round"/><path d="M16026.00,12626.00L16126.00,12626.00L16226.00,12626.00L16326.00,12626.00L16426.00,12626.00L16526.00,12626.00L16626.00,12626.00L16726.00,12626.00L16826.00,12626.00L16926.00,12626.00L17026.00,12626.00L17126.00,12626.00L17226.00,12626.00L17326.00,12626.00L17426.00,12626.00L17526.00,12626.00L17626.00,12626.00L17726.00,12626.00L17826.00,12626.00L17926.00,12626.00L18026.00,12626.00L18126.00,12626.00L18226.00,12626.00L18326.00,12626.00L18426.00,12626.00L18526.00,12626.00L18626.00,12626.00L18726.00,12626.00L18826.00,12626.00L18926.00,12626.00L19026.00,12626.00L19126.00,12626.00L19226.00,12626.00L19326.00,12626.00L19426.00,12626.00L19526.00,12626.00L19626.00,12626.00L19726.00,12626.00L19826.00,12626.00L19926.00,12626.00L20026.00,12626.00L20126.00,12626.00L20226.00,12626.00L20326.00,12626.00L20426.00,12626.00L20526.00,12626.00L20626.00,12626.00L20726.00,12626.00L20826.00,12626.00L20926.00,12626.00L21026.00,12626.00Z" fill="none" stroke="#c83c3c" stroke-width="205.96" stroke-linecap="round" stroke-linejoin="round"/><path d="M21026.00,12626.00L21026.00,12726.00L21026.00,12826.00L21026.00,12926.00L21026.00,13026.00L21026.00,13126.00L21026.00,13226.00L21026.00,13326.00L21026.00,13426.00L21026.00,13526.00L21126.00,13526.00L21126.00,13626.00Z" fill="none" stroke="#3c78dc" stroke-width="205.96" stroke-linecap="round" stroke-linejoin="round"/><path d="M21126.00,13626.00L21026.00,13626.00Z" fill="none" stroke="#c83c3c" stroke-width="205.96" stroke-linecap="round" stroke-linejoin="round"/><path d="M21026.00,12626.00L21126.00,12626.00L21226.00,12626.00L21326.00,12626.00L21426.00,12626.00L21526.00,12626.00L21626.00,12626.00L21726.00,12626.00L21726.00,12526.00L21726.00,12426.00L21726.00,12326.00L21726.00,12226.00L21726.00,12126.00L21726.00,12026.00L21726.00,11926.00L21726.00,11826.00L21726.00,11726.00L21726.00,11626.00L21726.00,11526.00L21726.00,11426.00Z" fill="none" stroke="#c83c3c" stroke-width="205.96" stroke-linecap="round" stroke-linejoin="round"/><path d="M21726.00,12626.00L21826.00,12626.00L21926.00,12626.00L22026.00,12626.00L22126.00,12626.00L22226.00,12626.00L22326.00,12626.00L22426.00,12626.00L22426.00,12726.00L22426.00,12826.00Z" fill="none" stroke="#c83c3c" stroke-width="205.96" stroke-linecap="round" stroke-linejoin="round"/><path d="M9926.00,16026.00L9926.00,15926.00L9926.00,15826.00L9926.00,15726.00L9926.00,15626.00L9926.00,15526.00L9926.00,15426.00L9926.00,15326.00L9926.00,15226.00L9926.00,15126.00L9926.00,15026.00L9926.00,14926.00L9926.00,14826.00L9926.00,14726.00L9926.00,14626.00L9926.00,14526.00L9926.00,14426.00L9926.00,14326.00L9926.00,14226.00L9926.00,14126.00L9926.00,14026.00L9926.00,13926.00L9926.00,13826.00L9926.00,13726.00L9926.00,13626.00L9926.00,13526.00L9926.00,13426.00L9926.00,13326.00L9926.00,13226.00L9926.00,13126.00L9926.00,13026.00L9926.00,12926.00L9926.00,12826.00L9926.00,12726.00L9926.00,12626.00L9926.00,12526.00L9926.00,12426.00L9926.00,12326.00L9926.00,12226.00L9926.00,12126.00L9926.00,12026.00L9926.00,11926.00L9926.00,11826.00L9926.00,11726.00L9926.00,11626.00L9926.00,11526.00L9926.00,11426.00L9926.00,11326.00L9926.00,11226.00L9926.00,11126.00L9926.00,11026.00L9926.00,10926.00L9926.00,10826.00L9926.00,10726.00L9926.00,10626.00L9926.00,10526.00L9926.00,10426.00L9926.00,10326.00L9926.00,10226.00L9926.00,10126.00L9926.00,10026.00L9926.00,9926.00L9926.00,9826.00L9926.00,9726.00L9926.00,9626.00Z" fill="none" stroke="#3c78dc" stroke-width="205.96" stroke-linecap="round" stroke-linejoin="round"/><path d="M9926.00,9626.00L9826.00,9626.00L9726.00,9626.00L9626.00,9626.00L9526.00,9626.00L9426.00,9626.00L9326.00,9626.00L9226.00,9626.00L9126.00,9626.00L9026.00,9626.00L8926.00,9626.00L8826.00,9626.00L8726.00,9626.00L8626.00,9626.00L8526.00,9626.00L8426.00,9626.00L8326.00,9626.00L8326.00,9526.00L8326.00,9426.00L8326.00,9326.00L8326.00,9226.00L8326.00,9126.00L8326.00,9026.00L8326.00,8926.00L8326.00,8826.00L8326.00,8726.00L8326.00,8626.00L8326.00,8526.00Z" fill="none" stroke="#3c78dc" stroke-width="205.96" stroke-linecap="round" stroke-linejoin="round"/><path d="M8326.00,8526.00L8226.00,8526.00L8126.00,8526.00L8026.00,8526.00L7926.00,8526.00L7826.00,8526.00L7726.00,8526.00L7626.00,8526.00L7526.00,8526.00L7426.00,8526.00L7326.00,8526.00L7226.00,8526.00L7126.00,8526.00L7026.00,8526.00L6926.00,8526.00L6826.00,8526.00L6726.00,8526.00L6626.00,8526.00L6526.00,8526.00L6426.00,8526.00L6326.00,8526.00L6226.00,8526.00L6126.00,8526.00L6026.00,8526.00L5926.00,8526.00L5826.00,8526.00L5726.00,8526.00L5626.00,8526.00L5526.00,8526.00L5426.00,8526.00L5326.00,8526.00L5226.00,8526.00L5126.00,8526.00L5026.00,8526.00L4926.00,8526.00L4826.00,8526.00L4726.00,8526.00L4626.00,8526.00L4526.00,8526.00L4426.00,8526.00L4326.00,8526.00L4226.00,8526.00L4126.00,8526.00Z" fill="none" stroke="#3c78dc" stroke-width="205.96" stroke-linecap="round" stroke-linejoin="round"/><path d="M22426.00,12826.00L22526.00,12826.00L22626.00,12826.00L22726.00,12826.00L22826.00,12826.00L22926.00,12826.00L23026.00,12826.00L23126.00,12826.00L23226.00,12826.00L23326.00,12826.00L23426.00,12826.00L23526.00,12826.00L23626.00,12826.00L23726.00,12826.00L23826.00,12826.00L23926.00,12826.00L24026.00,12826.00L24126.00,12826.00L24226.00,12826.00L24326.00,12826.00L24426.00,12826.00L24526.00,12826.00L24626.00,12826.00L24726.00,12826.00L24826.00,12826.00L24926.00,12826.00L25026.00,12826.00L25126.00,12826.00L25226.00,12826.00L25326.00,12826.00L25426.00,12826.00L25526.00,12826.00L25626.00,12826.00L25726.00,12826.00L25826.00,12826.00L25926.00,12826.00L26026.00,12826.00L26126.00,12826.00L26226.00,12826.00L26326.00,12826.00L26426.00,12826.00L26526.00,12826.00L26626.00,12826.00L26726.00,12826.00L26826.00,12826.00L26926.00,12826.00L27026.00,12826.00L27126.00,12826.00L27226.00,12826.00L27326.00,12826.00L27426.00,12826.00L27526.00,12826.00L27626.00,12826.00L27726.00,12826.00L27826.00,12826.00L27926.00,12826.00L28026.00,12826.00L28126.00,12826.00L28226.00,12826.00L28326.00,12826.00L28426.00,12826.00L28526.00,12826.00L28626.00,12826.00L28726.00,12826.00L28826.00,12826.00L28926.00,12826.00L28926.00,12926.00L28926.00,13026.00L28926.00,13126.00L28926.00,13226.00L28926.00,13326.00L28926.00,13426.00L28926.00,13526.00L28926.00,13626.00L28926.00,13726.00L28926.00,13826.00L28926.00,13926.00Z" fill="none" stroke="#c83c3c" stroke-width="205.96" stroke-linecap="round" stroke-linejoin="round"/><path d="M28926.00,13926.00L29026.00,13926.00L29126.00,13926.00L29226.00,13926.00L29326.00,13926.00L29426.00,13926.00L29526.00,13926.00L29626.00,13926.00L29726.00,13926.00L29826.00,13926.00L29926.00,13926.00L30026.00,13926.00L30126.00,13926.00L30226.00,13926.00L30326.00,13926.00L30426.00,13926.00L30526.00,13926.00L30626.00,13926.00L30726.00,13926.00L30826.00,13926.00L30926.00,13926.00L30926.00,14026.00L30926.00,14126.00L30926.00,14226.00L30926.00,14326.00L30926.00,14426.00L30926.00,14526.00L30926.00,14626.00L30926.00,14726.00L30926.00,14826.00L30926.00,14926.00L30926.00,15026.00L30926.00,15126.00L30926.00,15226.00L30926.00,15326.00L31026.00,15326.00L31126.00,15326.00L31226.00,15326.00L31326.00,15326.00L31426.00,15326.00L31526.00,15326.00L31626.00,15326.00L31626.00,15226.00Z" fill="none" stroke="#c83c3c" stroke-width="205.96" stroke-linecap="round" stroke-linejoin="round"/><path d="M31626.00,15226.00L31726.00,15226.00L31826.00,15226.00L31926.00,15226.00L32026.00,15226.00L32126.00,15226.00L32226.00,15226.00L32326.00,15226.00Z" fill="none" stroke="#c83c3c" stroke-width="205.96" stroke-linecap="round" stroke-linejoin="round"/><path d="M30926.00,13926.00L31026.00,13926.00L31126.00,13926.00L31226.00,13926.00L31326.00,13926.00L31326.00,13826.00L31426.00,13826.00L31426.00,13726.00L31526.00,13726.00L31526.00,13626.00L31526.00,13526.00L31526.00,13426.00L31526.00,13326.00L31526.00,13226.00L31526.00,13126.00L31526.00,13026.00L31526.00,12926.00L31526.00,12826.00L31526.00,12726.00L31526.00,12626.00L31526.00,12526.00L31526.00,12426.00Z" fill="none" stroke="#c83c3c" stroke-width="205.96" stroke-linecap="round" stroke-linejoin="round"/><path d="M31526.00,12426.00L31626.00,12426.00L31726.00,12426.00L31826.00,12426.00L31926.00,12426.00L32026.00,12426.00L32126.00,12426.00L32226.00,12426.00L32326.00,12426.00L32426.00,12426.00L32526.00,12426.00L32626.00,12426.00L32726.00,12426.00L32826.00,12426.00L32926.00,12426.00L33026.00,12426.00L33126.00,12426.00L33226.00,12426.00L33326.00,12426.00L33426.00,12426.00L33526.00,12426.00L33626.00,12426.00L33726.00,12426.00L33826.00,12426.00L33926.00,12426.00L34026.00,12426.00L34126.00,12426.00L34226.00,12426.00L34326.00,12426.00L34426.00,12426.00L34526.00,12426.00L34626.00,12426.00L34726.00,12426.00L34826.00,12426.00L34926.00,12426.00L35026.00,12426.00L35126.00,12426.00L35226.00,12426.00L35326.00,12426.00L35326.00,12326.00L35326.00,12226.00L35326.00,12126.00L35326.00,12026.00L35326.00,11926.00L35326.00,11826.00L35326.00,11726.00L35326.00,11626.00L35326.00,11526.00L35326.00,11426.00L35326.00,11326.00L35326.00,11226.00L35326.00,11126.00L35326.00,11026.00L35326.00,10926.00L35326.00,10826.00L35326.00,10726.00L35326.00,10626.00L35326.00,10526.00L35326.00,10426.00L35326.00,10326.00L35326.00,10226.00L35326.00,10126.00L35326.00,10026.00L35326.00,9926.00L35326.00,9826.00L35326.00,9726.00L35326.00,9626.00L35326.00,9526.00L35326.00,9426.00L35326.00,9326.00L35326.00,9226.00L35326.00,9126.00L35326.00,9026.00L35326.00,8926.00L35326.00,8826.00L35326.00,8726.00L35326.00,8626.00L35326.00,8526.00L35326.00,8426.00L35326.00,8326.00L35326.00,8226.00L35326.00,8126.00L35326.00,8026.00L35326.00,7926.00L35326.00,7826.00L35326.00,7726.00L35326.00,7626.00L35326.00,7526.00L35326.00,7426.00L35326.00,7326.00L35326.00,7226.00L35326.00,7126.00Z" fill="none" stroke="#3c78dc" stroke-width="205.96" stroke-linecap="round" stroke-linejoin="round"/><path d="M35326.00,7226.00L35426.00,7226.00L35526.00,7226.00L35626.00,7226.00L35726.00,7226.00L35826.00,7226.00L35926.00,7226.00L36026.00,7226.00L36126.00,7226.00L36226.00,7226.00L36326.00,7226.00L36426.00,7226.00L36526.00,7226.00L36626.00,7226.00L36726.00,7226.00L36826.00,7226.00L36926.00,7226.00L37026.00,7226.00L37126.00,7226.00L37226.00,7226.00L37326.00,7226.00L37426.00,7226.00L37526.00,7226.00L37626.00,7226.00L37726.00,7226.00L37826.00,7226.00L37926.00,7226.00L38026.00,7226.00L38126.00,7226.00L38226.00,7226.00L38326.00,7226.00L38426.00,7226.00L38526.00,7226.00L38626.00,7226.00L38726.00,7226.00L38826.00,7226.00L38926.00,7226.00L39026.00,7226.00L39126.00,7226.00L39226.00,7226.00L39326.00,7226.00L39426.00,7226.00L39526.00,7226.00L39626.00,7226.00L39726.00,7226.00L39826.00,7226.00L39926.00,7226.00L40026.00,7226.00L40126.00,7226.00L40226.00,7226.00L40326.00,7226.00Z" fill="none" stroke="#3c78dc" stroke-width="205.96" stroke-linecap="round" stroke-linejoin="round"/><path d="M26426.00,12826.00L26426.00,12926.00L26426.00,13026.00L26426.00,13126.00L26426.00,13226.00L26426.00,13326.00L26426.00,13426.00L26426.00,13526.00L26426.00,13626.00L26426.00,13726.00L26426.00,13826.00L26426.00,13926.00L26426.00,14026.00L26426.00,14126.00L26426.00,14226.00L26426.00,14326.00L26426.00,14426.00L26426.00,14526.00L26426.00,14626.00L26426.00,14726.00L26426.00,14826.00L26426.00,14926.00L26426.00,15026.00L26426.00,15126.00L26426.00,15226.00L26426.00,15326.00L26426.00,15426.00L26426.00,15526.00L26426.00,15626.00L26426.00,15726.00L26426.00,15826.00L26426.00,15926.00L26426.00,16026.00L26426.00,16126.00L26426.00,16226.00L26426.00,16326.00L26426.00,16426.00L26426.00,16526.00Z" fill="none" stroke="#c83c3c" stroke-width="205.96" stroke-linecap="round" stroke-linejoin="round"/><path d="M26426.00,16526.00L26426.00,16626.00L26426.00,16726.00L26426.00,16826.00L26426.00,16926.00L26426.00,17026.00L26426.00,17126.00L26426.00,17226.00L26426.00,17326.00L26426.00,17426.00L26426.00,17526.00L26426.00,17626.00L26426.00,17726.00L26426.00,17826.00L26426.00,17926.00L26426.00,18026.00L26426.00,18126.00L26426.00,18226.00L26426.00,18326.00L26426.00,18426.00L26426.00,18526.00L26426.00,18626.00L26426.00,18726.00L26426.00,18826.00L26426.00,18926.00L26426.00,19026.00L26426.00,19126.00L26426.00,19226.00L26426.00,19326.00L26426.00,19426.00L26426.00,19526.00L26426.00,19626.00L26426.00,19726.00L26426.00,19826.00L26426.00,19926.00L26426.00,20026.00L26426.00,20126.00L26426.00,20226.00L26426.00,20326.00L26426.00,20426.00L26426.00,20526.00L26426.00,20626.00L26426.00,20726.00L26426.00,20826.00L26426.00,20926.00L26426.00,21026.00L26426.00,21126.00L26426.00,21226.00L26426.00,21326.00L26426.00,21426.00L26426.00,21526.00L26426.00,21626.00L26426.00,21726.00Z" fill="none" stroke="#3c78dc" stroke-width="205.96" stroke-linecap="round" stroke-linejoin="round"/><circle cx="22450.50" cy="17276.20" r="411.91" fill="#ffffff" stroke="#888888" stroke-width="0.5"/><circle cx="18689.30" cy="4214.20" r="411.91" fill="#ffffff" stroke="#888888" stroke-width="0.5"/><circle cx="24892.50" cy="13490.20" r="411.91" fill="#ffffff" stroke="#888888" stroke-width="0.5"/><circle cx="18874.00" cy="14559.20" r="411.91" fill="#ffffff" stroke="#888888" stroke-width="0.5"/><circle cx="10908.20" cy="4214.20" r="411.91" fill="#ffffff" stroke="#888888" stroke-width="0.5"/><circle cx="11709.10" cy="15513.80" r="411.91" fill="#ffffff" stroke="#888888" stroke-width="0.5"/><circle cx="11709.10" cy="10987.50" r="411.91" fill="#ffffff" stroke="#888888" stroke-width="0.5"/><circle cx="23294.10" cy="10179.50" r="411.91" fill="#ffffff" stroke="#888888" stroke-width="0.5"/><circle cx="31774.70" cy="20186.50" r="411.91" fill="#ffffff" stroke="#888888" stroke-width="0.5"/><circle cx="24014.80" cy="15021.40" r="411.91" fill="#ffffff" stroke="#888888" stroke-width="0.5"/><circle cx="21703.30" cy="15521.40" r="411.91" fill="#ffffff" stroke="#888888" stroke-width="0.5"/><circle cx="21599.50" cy="18973.50" r="411.91" fill="#ffffff" stroke="#888888" stroke-width="0.5"/><circle cx="21126.00" cy="13626.00" r="411.91" fill="#ffffff" stroke="#888888" stroke-width="0.5"/><circle cx="26426.00" cy="16526.00" r="411.91" fill="#ffffff" stroke="#888888" stroke-width="0.5"/><circle cx="16650.10" cy="18846.00" r="343.26" fill="#dcb428" stroke="#000000" stroke-width="0.3"/><circle cx="19608.10" cy="18846.00" r="343.26" fill="#dcb428" stroke="#000000" stroke-width="0.3"/><circle cx="11900.00" cy="18847.00" r="343.26" fill="#dcb428" stroke="#000000" stroke-width="0.3"/><circle cx="14858.00" cy="18847.00" r="343.26" fill="#dcb428" stroke="#000000" stroke-width="0.3"/><circle cx="28896.00" cy="13961.00" r="343.26" fill="#dcb428" stroke="#000000" stroke-width="0.3"/><circle cx="28896.00" cy="11003.00" r="343.26" fill="#dcb428" stroke="#000000" stroke-width="0.3"/><circle cx="26426.00" cy="21684.00" r="343.26" fill="#dcb428" stroke="#000000" stroke-width="0.3"/><circle cx="26426.00" cy="18726.00" r="343.26" fill="#dcb428" stroke="#000000" stroke-width="0.3"/><circle cx="23501.00" cy="21684.00" r="343.26" fill="#dcb428" stroke="#000000" stroke-width="0.3"/><circle cx="23501.00" cy="18726.00" r="343.26" fill="#dcb428" stroke="#000000" stroke-width="0.3"/><circle cx="9893.00" cy="9632.50" r="343.26" fill="#dcb428" stroke="#000000" stroke-width="0.3"/><circle cx="9893.00" cy="10445.00" r="343.26" fill="#dcb428" stroke="#000000" stroke-width="0.3"/><circle cx="9893.00" cy="11600.00" r="343.26" fill="#dcb428" stroke="#000000" stroke-width="0.3"/><circle cx="9893.00" cy="12600.00" r="343.26" fill="#dcb428" stroke="#000000" stroke-width="0.3"/><circle cx="9893.00" cy="13100.00" r="343.26" fill="#dcb428" stroke="#000000" stroke-width="0.3"/><circle cx="9893.00" cy="14100.00" r="343.26" fill="#dcb428" stroke="#000000" stroke-width="0.3"/><circle cx="9893.00" cy="15255.00" r="343.26" fill="#dcb428" stroke="#000000" stroke-width="0.3"/><circle cx="9893.00" cy="16055.00" r="343.26" fill="#dcb428" stroke="#000000" stroke-width="0.3"/><circle cx="9893.00" cy="16055.00" r="343.26" fill="#dcb428" stroke="#000000" stroke-width="0.3"/><circle cx="9893.00" cy="15255.00" r="343.26" fill="#dcb428" stroke="#000000" stroke-width="0.3"/><circle cx="9893.00" cy="14600.00" r="343.26" fill="#dcb428" stroke="#000000" stroke-width="0.3"/><circle cx="9893.00" cy="13600.00" r="343.26" fill="#dcb428" stroke="#000000" stroke-width="0.3"/><circle cx="9893.00" cy="12100.00" r="343.26" fill="#dcb428" stroke="#000000" stroke-width="0.3"/><circle cx="9893.00" cy="11100.00" r="343.26" fill="#dcb428" stroke="#000000" stroke-width="0.3"/><circle cx="9893.00" cy="10442.50" r="343.26" fill="#dcb428" stroke="#000000" stroke-width="0.3"/><circle cx="9893.00" cy="9645.00" r="343.26" fill="#dcb428" stroke="#000000" stroke-width="0.3"/><circle cx="8326.00" cy="8525.00" r="343.26" fill="#dcb428" stroke="#000000" stroke-width="0.3"/><circle cx="4145.00" cy="8525.00" r="343.26" fill="#dcb428" stroke="#000000" stroke-width="0.3"/><circle cx="8326.00" cy="17175.00" r="343.26" fill="#dcb428" stroke="#000000" stroke-width="0.3"/><circle cx="4145.00" cy="17175.00" r="343.26" fill="#dcb428" stroke="#000000" stroke-width="0.3"/><circle cx="15432.00" cy="4049.70" r="343.26" fill="#dcb428" stroke="#000000" stroke-width="0.3"/><circle cx="12474.00" cy="4049.70" r="343.26" fill="#dcb428" stroke="#000000" stroke-width="0.3"/><circle cx="15459.00" cy="6775.00" r="343.26" fill="#dcb428" stroke="#000000" stroke-width="0.3"/><circle cx="12501.00" cy="6775.00" r="343.26" fill="#dcb428" stroke="#000000" stroke-width="0.3"/><circle cx="3751.00" cy="3831.00" r="343.26" fill="#dcb428" stroke="#000000" stroke-width="0.3"/><circle cx="35326.00" cy="4626.00" r="343.26" fill="#dcb428" stroke="#000000" stroke-width="0.3"/><circle cx="35326.00" cy="7166.00" r="343.26" fill="#dcb428" stroke="#000000" stroke-width="0.3"/><circle cx="35526.00" cy="18526.00" r="343.26" fill="#dcb428" stroke="#000000" stroke-width="0.3"/><circle cx="35526.00" cy="21066.00" r="343.26" fill="#dcb428" stroke="#000000" stroke-width="0.3"/><circle cx="64526.00" cy="16176.00" r="343.26" fill="#dcb428" stroke="#000000" stroke-width="0.3"/><circle cx="67751.00" cy="16176.00" r="343.26" fill="#dcb428" stroke="#000000" stroke-width="0.3"/><circle cx="63339.00" cy="8919.00" r="343.26" fill="#dcb428" stroke="#000000" stroke-width="0.3"/><circle cx="66564.00" cy="8919.00" r="343.26" fill="#dcb428" stroke="#000000" stroke-width="0.3"/><circle cx="3726.00" cy="21931.00" r="343.26" fill="#dcb428" stroke="#000000" stroke-width="0.3"/><circle cx="13126.00" cy="11220.00" r="343.26" fill="#dcb428" stroke="#000000" stroke-width="0.3"/><circle cx="13126.00" cy="14413.00" r="343.26" fill="#dcb428" stroke="#000000" stroke-width="0.3"/><circle cx="32971.00" cy="9410.50" r="343.26" fill="#dcb428" stroke="#000000" stroke-width="0.3"/><circle cx="32311.00" cy="9410.50" r="343.26" fill="#dcb428" stroke="#000000" stroke-width="0.3"/><circle cx="31661.00" cy="9410.50" r="343.26" fill="#dcb428" stroke="#000000" stroke-width="0.3"/><circle cx="31011.00" cy="9410.50" r="343.26" fill="#dcb428" stroke="#000000" stroke-width="0.3"/><circle cx="31011.00" cy="15270.50" r="343.26" fill="#dcb428" stroke="#000000" stroke-width="0.3"/><circle cx="31661.00" cy="15270.50" r="343.26" fill="#dcb428" stroke="#000000" stroke-width="0.3"/><circle cx="32311.00" cy="15270.50" r="343.26" fill="#dcb428" stroke="#000000" stroke-width="0.3"/><circle cx="32971.00" cy="15270.50" r="343.26" fill="#dcb428" stroke="#000000" stroke-width="0.3"/><circle cx="19989.30" cy="4049.20" r="343.26" fill="#dcb428" stroke="#000000" stroke-width="0.3"/><circle cx="17389.30" cy="4049.20" r="343.26" fill="#dcb428" stroke="#000000" stroke-width="0.3"/><circle cx="19993.30" cy="6774.50" r="343.26" fill="#dcb428" stroke="#000000" stroke-width="0.3"/><circle cx="17393.30" cy="6774.50" r="343.26" fill="#dcb428" stroke="#000000" stroke-width="0.3"/><circle cx="16026.00" cy="10325.00" r="343.26" fill="#dcb428" stroke="#000000" stroke-width="0.3"/><circle cx="16026.00" cy="11240.00" r="343.26" fill="#dcb428" stroke="#000000" stroke-width="0.3"/><circle cx="16026.00" cy="14425.00" r="343.26" fill="#dcb428" stroke="#000000" stroke-width="0.3"/><circle cx="16026.00" cy="15325.00" r="343.26" fill="#dcb428" stroke="#000000" stroke-width="0.3"/><circle cx="39126.00" cy="12526.00" r="343.26" fill="#dcb428" stroke="#000000" stroke-width="0.3"/><circle cx="42319.00" cy="12526.00" r="343.26" fill="#dcb428" stroke="#000000" stroke-width="0.3"/><circle cx="37146.00" cy="13413.00" r="343.26" fill="#dcb428" stroke="#000000" stroke-width="0.3"/><circle cx="37146.00" cy="12463.00" r="343.26" fill="#dcb428" stroke="#000000" stroke-width="0.3"/><circle cx="37146.00" cy="11513.00" r="343.26" fill="#dcb428" stroke="#000000" stroke-width="0.3"/><circle cx="34871.00" cy="11513.00" r="343.26" fill="#dcb428" stroke="#000000" stroke-width="0.3"/><circle cx="34871.00" cy="13413.00" r="343.26" fill="#dcb428" stroke="#000000" stroke-width="0.3"/><circle cx="40326.00" cy="5226.00" r="343.26" fill="#dcb428" stroke="#000000" stroke-width="0.3"/><circle cx="40326.00" cy="7226.00" r="343.26" fill="#dcb428" stroke="#000000" stroke-width="0.3"/><circle cx="40326.00" cy="17976.00" r="343.26" fill="#dcb428" stroke="#000000" stroke-width="0.3"/><circle cx="40326.00" cy="19976.00" r="343.26" fill="#dcb428" stroke="#000000" stroke-width="0.3"/><circle cx="32957.00" cy="12463.00" r="343.26" fill="#dcb428" stroke="#000000" stroke-width="0.3"/><circle cx="31541.00" cy="12463.00" r="343.26" fill="#dcb428" stroke="#000000" stroke-width="0.3"/><circle cx="23213.50" cy="11437.50" r="343.26" fill="#dcb428" stroke="#000000" stroke-width="0.3"/><circle cx="22713.50" cy="11437.50" r="343.26" fill="#dcb428" stroke="#000000" stroke-width="0.3"/><circle cx="22213.50" cy="11437.50" r="343.26" fill="#dcb428" stroke="#000000" stroke-width="0.3"/><circle cx="21713.50" cy="11437.50" r="343.26" fill="#dcb428" stroke="#000000" stroke-width="0.3"/><circle cx="21026.00" cy="12125.00" r="343.26" fill="#dcb428" stroke="#000000" stroke-width="0.3"/><circle cx="21026.00" cy="12625.00" r="343.26" fill="#dcb428" stroke="#000000" stroke-width="0.3"/><circle cx="21026.00" cy="13125.00" r="343.26" fill="#dcb428" stroke="#000000" stroke-width="0.3"/><circle cx="21026.00" cy="13625.00" r="343.26" fill="#dcb428" stroke="#000000" stroke-width="0.3"/><circle cx="21713.50" cy="14312.50" r="343.26" fill="#dcb428" stroke="#000000" stroke-width="0.3"/><circle cx="22213.50" cy="14312.50" r="343.26" fill="#dcb428" stroke="#000000" stroke-width="0.3"/><circle cx="22713.50" cy="14312.50" r="343.26" fill="#dcb428" stroke="#000000" stroke-width="0.3"/><circle cx="23213.50" cy="14312.50" r="343.26" fill="#dcb428" stroke="#000000" stroke-width="0.3"/><circle cx="23901.00" cy="13625.00" r="343.26" fill="#dcb428" stroke="#000000" stroke-width="0.3"/><circle cx="23901.00" cy="13125.00" r="343.26" fill="#dcb428" stroke="#000000" stroke-width="0.3"/><circle cx="23901.00" cy="12625.00" r="343.26" fill="#dcb428" stroke="#000000" stroke-width="0.3"/><circle cx="23901.00" cy="12125.00" r="343.26" fill="#dcb428" stroke="#000000" stroke-width="0.3"/><circle cx="22463.50" cy="12875.00" r="343.26" fill="#dcb428" stroke="#000000" stroke-width="0.3"/></svg>