<svg xmlns="http://www.w3.org/2000/svg" viewBox="0 0 28300.0 33300.0" width="1200" height="1412"><rect width="100%" height="100%" fill="#141414"/><path d="M1650.00,31650.00L26650.00,31650.00L26650.00,1650.00L1650.00,1650.00L1650.00,31650.00Z" fill="#1e3c1e" stroke="#b4dcb4" stroke-width="0.5"/><path d="M7250.00,25150.00L7150.00,25150.00L7050.00,25150.00L6950.00,25150.00L6850.00,25150.00L6750.00,25150.00L6650.00,25150.00L6550.00,25150.00L6450.00,25150.00L6350.00,25150.00L6250.00,25150.00L6150.00,25150.00L6050.00,25150.00L5950.00,25150.00L5850.00,25150.00L5750.00,25150.00L5650.00,25150.00L5550.00,25150.00L5450.00,25150.00L5350.00,25150.00L5250.00,25150.00L5150.00,25150.00L5050.00,25150.00L4950.00,25150.00L4850.00,25150.00L4750.00,25150.00L4650.00,25150.00L4550.00,25150.00L4450.00,25150.00L4350.00,25150.00L4250.00,25150.00L4150.00,25150.00L4050.00,25150.00L3950.00,25150.00L3850.00,25150.00L3750.00,25150.00L3650.00,25150.00L3550.00,25150.00L3450.00,25150.00L3450.00,25250.00L3450.00,25350.00L3450.00,25450.00L3450.00,25550.00L3450.00,25650.00L3450.00,25750.00L3450.00,25850.00L3450.00,25950.00L3450.00,26050.00L3450.00,26150.00L3450.00,26250.00L3450.00,26350.00L3450.00,26450.00L3450.00,26550.00L3450.00,26650.00L3450.00,26750.00L3450.00,26850.00L3450.00,26950.00L3450.00,27050.00L3450.00,27150.00L3450.00,27250.00L3450.00,27350.00L3450.00,27450.00L3450.00,27550.00L3450.00,27650.00L3450.00,27750.00L3450.00,27850.00L3450.00,27950.00L3450.00,28050.00L3450.00,28150.00L3450.00,28250.00Z" fill="none" stroke="#c83c3c" stroke-width="100.00" stroke-linecap="round" stroke-linejoin="round"/><path d="M24250.00,9650.00L24150.00,9650.00L24050.00,9650.00L23950.00,9650.00L23850.00,9650.00L23750.00,9650.00L23650.00,9650.00L23550.00,9650.00L23450.00,9650.00L23350.00,9650.00L23250.00,9650.00L23150.00,9650.00L23050.00,9650.00L22950.00,9650.00L22850.00,9650.00L22750.00,9650.00L22650.00,9650.00L22550.00,9650.00L22450.00,9650.00L22350.00,9650.00L22250.00,9650.00L22150.00,9650.00L22050.00,9650.00L21950.00,9650.00L21850.00,9650.00L21750.00,9650.00L21650.00,9650.00L21550.00,9650.00L21450.00,9650.00L21350.00,9650.00L21250.00,9650.00L21150.00,9650.00L21050.00,9650.00L20950.00,9650.00L20850.00,9650.00L20750.00,9650.00L20650.00,9650.00L20550.00,9650.00L20450.00,9650.00L20350.00,9650.00L20250.00,9650.00L20150.00,9650.00L20050.00,9650.00L19950.00,9650.00L19850.00,9650.00L19750.00,9650.00L19650.00,9650.00L19550.00,9650.00L19450.00,9650.00L19350.00,9650.00L19250.00,9650.00L19150.00,9650.00L19050.00,9650.00L18950.00,9650.00L18850.00,9650.00L18750.00,9650.00L18650.00,9650.00L18550.00,9650.00L18450.00,9650.00L18350.00,9650.00L18250.00,9650.00L18150.00,9650.00L18050.00,9650.00L17950.00,9650.00L17850.00,9650.00L17750.00,9650.00L17650.00,9650.00L17550.00,9650.00L17450.00,9650.00L17350.00,9650.00L17250.00,9650.00L17150.00,9650.00L17050.00,9650.00L16950.00,9650.00L16850.00,9650.00L16750.00,9650.00L16650.00,9650.00L16550.00,9650.00L16450.00,9650.00L16350.00,9650.00L16250.00,9650.00L16150.00,9650.00L16050.00,9650.00L15950.00,9650.00L15850.00,9650.00L15750.00,9650.00L15650.00,9650.00L15550.00,9650.00L15450.00,9650.00L15350.00,9650.00L15250.00,9650.00L15150.00,9650.00L15050.00,9650.00L14950.00,9650.00L14850.00,9650.00L14750.00,9650.00L14650.00,9650.00L14550.00,9650.00L14450.00,9650.00L14350.00,9650.00L14250.00,9650.00L14150.00,9650.00L14050.00,9650.00L13950.00,9650.00L13850.00,9650.00L13750.00,9650.00L13650.00,9650.00L13550.00,9650.00L13450.00,9650.00L13350.00,9650.00L13250.00,9650.00L13150.00,9650.00L13050.00,9650.00L12950.00,9650.00L12850.00,9650.00L12750.00,9650.00L12650.00,9650.00L12550.00,9650.00L12450.00,9650.00L12350.00,9650.00L12250.00,9650.00L12150.00,9650.00L12050.00,9650.00L11950.00,9650.00L11850.00,9650.00L11750.00,9650.00L11650.00,9650.00L11550.00,9650.00L11450.00,9650.00L11350.00,9650.00L11250.00,9650.00L11150.00,9650.00L11050.00,9650.00L10950.00,9650.00L10850.00,9650.00L10750.00,9650.00L10650.00,9650.00L10550.00,9650.00L10450.00,9650.00L10350.00,9650.00L10250.00,9650.00L10150.00,9650.00L10050.00,9650.00L9950.00,9650.00L9850.00,9650.00L9750.00,9650.00L9650.00,9650.00L9550.00,9650.00L9450.00,9650.00L9350.00,9650.00L9250.00,9650.00L9150.00,9650.00L9050.00,9650.00L8950.00,9650.00L8850.00,9650.00L8750.00,9650.00L8650.00,9650.00L8550.00,9650.00L8450.00,9650.00L8350.00,9650.00L8250.00,9650.00L8250.00,9750.00L8250.00,9850.00L8250.00,9950.00L8250.00,10050.00L8250.00,10150.00L8250.00,10250.00L8250.00,10350.00L8250.00,10450.00L8250.00,10550.00L8250.00,10650.00L8250.00,10750.00L8250.00,10850.00L8250.00,10950.00L8250.00,11050.00L8250.00,11150.00L8250.00,11250.00L8250.00,11350.00L8250.00,11450.00L8250.00,11550.00L8250.00,11650.00L8250.00,11750.00L8250.00,11850.00L8250.00,11950.00L8250.00,12050.00L8250.00,12150.00L8250.00,12250.00L8250.00,12350.00L8250.00,12450.00L8250.00,12550.00L8250.00,12650.00L8250.00,12750.00L8250.00,12850.00L8250.00,12950.00L8250.00,13050.00L8250.00,13150.00L8250.00,13250.00L8250.00,13350.00L8250.00,13450.00L8250.00,13550.00L8250.00,13650.00L8250.00,13750.00L8250.00,13850.00L8250.00,13950.00L8250.00,14050.00L8250.00,14150.00L8250.00,14250.00L8250.00,14350.00L8250.00,14450.00L8250.00,14550.00L8250.00,14650.00L8250.00,14750.00L8250.00,14850.00L8250.00,14950.00L8250.00,15050.00L8250.00,15150.00L8250.00,15250.00L8250.00,15350.00L8250.00,15450.00L8250.00,15550.00L8250.00,15650.00L8250.00,15750.00L8250.00,15850.00L8250.00,15950.00L8250.00,16050.00L8250.00,16150.00L8250.00,16250.00L8250.00,16350.00L8250.00,16450.00L8250.00,16550.00L8250.00,16650.00L8250.00,16750.00L8250.00,16850.00L8250.00,16950.00L8250.00,17050.00L8250.00,17150.00L8250.00,17250.00L8250.00,17350.00L8250.00,17450.00L8250.00,17550.00L8250.00,17650.00L8250.00,17750.00L8250.00,17850.00L8250.00,17950.00L8250.00,18050.00L8250.00,18150.00L8250.00,18250.00L8250.00,18350.00L8250.00,18450.00L8250.00,18550.00L8250.00,18650.00L8250.00,18750.00L8250.00,18850.00L8250.00,18950.00L8250.00,19050.00L8250.00,19150.00L8250.00,19250.00L8250.00,19350.00L8250.00,19450.00L8250.00,19550.00L8250.00,19650.00L8250.00,19750.00L8250.00,19850.00L8250.00,19950.00L8250.00,20050.00L8250.00,20150.00L8250.00,20250.00L8250.00,20350.00L8250.00,20450.00L8250.00,20550.00L8250.00,20650.00L8250.00,20750.00L8250.00,20850.00L8250.00,20950.00L8250.00,21050.00L8250.00,21150.00L8250.00,21250.00L8250.00,21350.00L8250.00,21450.00L8250.00,21550.00L8250.00,21650.00L8250.00,21750.00L8250.00,21850.00L8250.00,21950.00L8250.00,22050.00L8250.00,22150.00L8250.00,22250.00L8250.00,22350.00L8250.00,22450.00L8250.00,22550.00L8250.00,22650.00L8250.00,22750.00L8250.00,22850.00L8250.00,22950.00L8250.00,23050.00L8250.00,23150.00L8250.00,23250.00L8250.00,23350.00L8250.00,23450.00L8250.00,23550.00L8250.00,23650.00L8250.00,23750.00L8250.00,23850.00L8250.00,23950.00L8250.00,24050.00L8250.00,24150.00L8250.00,24250.00L8250.00,24350.00L8250.00,24450.00L8250.00,24550.00L8250.00,24650.00L8250.00,24750.00L8250.00,24850.00L8250.00,24950.00L8250.00,25050.00L8250.00,25150.00Z" fill="none" stroke="#c83c3c" stroke-width="100.00" stroke-linecap="round" stroke-linejoin="round"/><path d="M11750.00,11850.00L11850.00,11850.00L11950.00,11850.00L12050.00,11850.00L12150.00,11850.00L12250.00,11850.00L12350.00,11850.00L12450.00,11850.00L12550.00,11850.00L12650.00,11850.00L12750.00,11850.00L12850.00,11850.00L12950.00,11850.00L13050.00,11850.00L13150.00,11850.00L13250.00,11850.00L13350.00,11850.00L13450.00,11850.00L13550.00,11850.00L13650.00,11850.00L13750.00,11850.00L13850.00,11850.00L13950.00,11850.00L14050.00,11850.00L14150.00,11850.00L14250.00,11850.00L14350.00,11850.00L14450.00,11850.00L14550.00,11850.00L14650.00,11850.00L14750.00,11850.00L14850.00,11850.00L14950.00,11850.00L15050.00,11850.00L15150.00,11850.00L15250.00,11850.00L15350.00,11850.00L15450.00,11850.00L15550.00,11850.00L15650.00,11850.00L15750.00,11850.00L15850.00,11850.00L15950.00,11850.00L16050.00,11850.00L16150.00,11850.00L16250.00,11850.00L16350.00,11850.00L16450.00,11850.00L16550.00,11850.00L16650.00,11850.00L16750.00,11850.00L16850.00,11850.00L16950.00,11850.00L17050.00,11850.00L17150.00,11850.00L17250.00,11850.00L17350.00,11850.00L17450.00,11850.00L17550.00,11850.00L17650.00,11850.00L17750.00,11850.00L17850.00,11850.00L17850.00,11950.00L17850.00,12050.00L17850.00,12150.00L17850.00,12250.00L17850.00,12350.00L17850.00,12450.00L17850.00,12550.00L17850.00,12650.00L17850.00,12750.00L17850.00,12850.00L17850.00,12950.00L17850.00,13050.00L17850.00,13150.00L17850.00,13250.00L17850.00,13350.00L17850.00,13450.00L17850.00,13550.00L17850.00,13650.00L17850.00,13750.00L17850.00,13850.00L17850.00,13950.00L17850.00,14050.00L17850.00,14150.00L17850.00,14250.00L17850.00,14350.00L17850.00,14450.00L17850.00,14550.00L17850.00,14650.00L17850.00,14750.00L17850.00,14850.00L17850.00,14950.00L17850.00,15050.00L17850.00,15150.00L17850.00,15250.00L17850.00,15350.00L17850.00,15450.00L17850.00,15550.00L17850.00,15650.00L17850.00,15750.00L17850.00,15850.00L17850.00,15950.00L17850.00,16050.00L17850.00,16150.00L17850.00,16250.00L17850.00,16350.00L17850.00,16450.00L17850.00,16550.00L17850.00,16650.00L17850.00,16750.00L17850.00,16850.00L17850.00,16950.00L17850.00,17050.00L17850.00,17150.00L17850.00,17250.00L17850.00,17350.00L17850.00,17450.00L17850.00,17550.00L17850.00,17650.00L17850.00,17750.00L17850.00,17850.00L17850.00,17950.00L17850.00,18050.00L17850.00,18150.00L17850.00,18250.00L17850.00,18350.00L17850.00,18450.00L17850.00,18550.00L17850.00,18650.00L17850.00,18750.00L17850.00,18850.00L17850.00,18950.00L17850.00,19050.00L17850.00,19150.00L17850.00,19250.00L17850.00,19350.00L17850.00,19450.00L17850.00,19550.00L17850.00,19650.00L17850.00,19750.00L17850.00,19850.00L17850.00,19950.00L17850.00,20050.00L17850.00,20150.00L17850.00,20250.00L17850.00,20350.00L17850.00,20450.00L17850.00,20550.00L17850.00,20650.00L17850.00,20750.00L17850.00,20850.00L17850.00,20950.00L17850.00,21050.00L17850.00,21150.00L17850.00,21250.00L17850.00,21350.00L17850.00,21450.00L17850.00,21550.00L17850.00,21650.00L17850.00,21750.00L17850.00,21850.00L17850.00,21950.00L17850.00,22050.00L17850.00,22150.00L17850.00,22250.00L17850.00,22350.00L17850.00,22450.00L17850.00,22550.00L17850.00,22650.00L17850.00,22750.00L17850.00,22850.00L17850.00,22950.00L17850.00,23050.00L17850.00,23150.00L17850.00,23250.00L17850.00,23350.00L17850.00,23450.00L17850.00,23550.00L17850.00,23650.00L17850.00,23750.00L17850.00,23850.00L17850.00,23950.00L17850.00,24050.00L17850.00,24150.00L17850.00,24250.00L17850.00,24350.00L17850.00,24450.00L17850.00,24550.00L17850.00,24650.00L17850.00,24750.00L17850.00,24850.00L17850.00,24950.00L17850.00,25050.00L17850.00,25150.00L17850.00,25250.00L17850.00,25350.00L17850.00,25450.00L17850.00,25550.00L17850.00,25650.00Z" fill="none" stroke="#c83c3c" stroke-width="100.00" stroke-linecap="round" stroke-linejoin="round"/><path d="M11750.00,9950.00L11850.00,9950.00L11950.00,9950.00L12050.00,9950.00L12150.00,9950.00L12250.00,9950.00L12350.00,9950.00L12450.00,9950.00L12550.00,9950.00L12650.00,9950.00L12750.00,9950.00L12850.00,9950.00L12950.00,9950.00L13050.00,9950.00L13150.00,9950.00L13250.00,9950.00L13350.00,9950.00L13450.00,9950.00L13550.00,9950.00L13650.00,9950.00L13750.00,9950.00L13850.00,9950.00L13950.00,9950.00L14050.00,9950.00L14150.00,9950.00L14250.00,9950.00L14350.00,9950.00L14450.00,9950.00L14550.00,9950.00L14650.00,9950.00L14750.00,9950.00L14850.00,9950.00L14950.00,9950.00L15050.00,9950.00L15150.00,9950.00L15250.00,9950.00L15350.00,9950.00L15450.00,9950.00L15550.00,9950.00L15650.00,9950.00L15750.00,9950.00L15850.00,9950.00L15950.00,9950.00L16050.00,9950.00L16150.00,9950.00L16250.00,9950.00L16350.00,9950.00L16450.00,9950.00L16550.00,9950.00L16650.00,9950.00L16750.00,9950.00L16850.00,9950.00L16950.00,9950.00L17050.00,9950.00L17150.00,9950.00L17250.00,9950.00L17350.00,9950.00L17450.00,9950.00L17550.00,9950.00L17650.00,9950.00L17750.00,9950.00L17850.00,9950.00L17850.00,10050.00L17850.00,10150.00L17850.00,10250.00L17850.00,10350.00L17850.00,10450.00L17850.00,10550.00L17850.00,10650.00L17850.00,10750.00L17850.00,10850.00L17850.00,10950.00L17850.00,11050.00L17850.00,11150.00L17850.00,11250.00L17850.00,11350.00L17850.00,11450.00L17850.00,11550.00L17850.00,11650.00L17850.00,11750.00L17850.00,11850.00L17850.00,11950.00L17850.00,12050.00L17850.00,12150.00L17850.00,12250.00L17850.00,12350.00L17850.00,12450.00L17850.00,12550.00L17850.00,12650.00L17850.00,12750.00L17850.00,12850.00L17850.00,12950.00L17850.00,13050.00L17850.00,13150.00L17850.00,13250.00L17850.00,13350.00L17850.00,13450.00L17850.00,13550.00L17850.00,13650.00L17850.00,13750.00L17850.00,13850.00L17850.00,13950.00L17850.00,14050.00L17850.00,14150.00L17850.00,14250.00L17850.00,14350.00L17850.00,14450.00L17850.00,14550.00L17850.00,14650.00L17850.00,14750.00L17850.00,14850.00L17850.00,14950.00L17850.00,15050.00L17850.00,15150.00L17850.00,15250.00L17850.00,15350.00L17850.00,15450.00L17850.00,15550.00L17850.00,15650.00L17850.00,15750.00L17850.00,15850.00L17850.00,15950.00L17850.00,16050.00L17850.00,16150.00L17850.00,16250.00L17850.00,16350.00L17850.00,16450.00L17850.00,16550.00L17850.00,16650.00L17850.00,16750.00L17850.00,16850.00L17850.00,16950.00L17850.00,17050.00L17850.00,17150.00L17850.00,17250.00L17850.00,17350.00L17850.00,17450.00L17850.00,17550.00L17850.00,17650.00L17850.00,17750.00L17850.00,17850.00L17850.00,17950.00L17850.00,18050.00L17850.00,18150.00L17850.00,18250.00L17850.00,18350.00L17850.00,18450.00L17850.00,18550.00L17850.00,18650.00L17850.00,18750.00L17850.00,18850.00L17850.00,18950.00L17850.00,19050.00L17850.00,19150.00L17850.00,19250.00L17850.00,19350.00L17850.00,19450.00L17850.00,19550.00L17850.00,19650.00L17850.00,19750.00L17850.00,19850.00L17850.00,19950.00L17850.00,20050.00L17850.00,20150.00L17850.00,20250.00L17850.00,20350.00L17850.00,20450.00L17850.00,20550.00L17850.00,20650.00L17850.00,20750.00L17850.00,20850.00L17850.00,20950.00L17850.00,21050.00L17850.00,21150.00L17850.00,21250.00L17850.00,21350.00L17850.00,21450.00L17850.00,21550.00L17850.00,21650.00L17850.00,21750.00L17850.00,21850.00L17850.00,21950.00L17850.00,22050.00L17850.00,22150.00L17850.00,22250.00L17850.00,22350.00L17850.00,22450.00L17850.00,22550.00L17850.00,22650.00L17850.00,22750.00L17850.00,22850.00L17850.00,22950.00L17850.00,23050.00L17850.00,23150.00L17850.00,23250.00L17850.00,23350.00L17850.00,23450.00L17850.00,23550.00L17850.00,23650.00L17850.00,23750.00L17850.00,23850.00L17850.00,23950.00L17850.00,24050.00L17850.00,24150.00L17850.00,24250.00L17850.00,24350.00L17850.00,24450.00L17850.00,24550.00L17850.00,24650.00L17850.00,24750.00L17850.00,24850.00L17850.00,24950.00L17850.00,25050.00L17850.00,25150.00L17850.00,25250.00L17850.00,25350.00L17850.00,25450.00L17850.00,25550.00L17850.00,25650.00L17850.00,25750.00L17850.00,25850.00L17850.00,25950.00L17850.00,26050.00L17850.00,26150.00L17850.00,26250.00L17850.00,26350.00L17850.00,26450.00L17850.00,26550.00L17850.00,26650.00L17850.00,26750.00L17850.00,26850.00L17850.00,26950.00L17850.00,27050.00L17850.00,27150.00L17850.00,27250.00L17850.00,27350.00L17850.00,27450.00L17850.00,27550.00L17850.00,27650.00Z" fill="none" stroke="#c83c3c" stroke-width="100.00" stroke-linecap="round" stroke-linejoin="round"/><path d="M8150.00,7150.00L8050.00,7150.00L7950.00,7150.00L7850.00,7150.00L7750.00,7150.00L7650.00,7150.00L7550.00,7150.00L7450.00,7150.00L7350.00,7150.00L7250.00,7150.00L7250.00,7250.00L7250.00,7350.00L7250.00,7450.00L7250.00,7550.00L7250.00,7650.00L7250.00,7750.00L7250.00,7850.00L7250.00,7950.00L7250.00,8050.00L7250.00,8150.00L7250.00,8250.00L7250.00,8350.00L7250.00,8450.00L7250.00,8550.00L7250.00,8650.00L7250.00,8750.00L7250.00,8850.00L7250.00,8950.00L7250.00,9050.00L7250.00,9150.00L7250.00,9250.00L7250.00,9350.00L7250.00,9450.00L7250.00,9550.00L7250.00,9650.00L7250.00,9750.00L7250.00,9850.00L7250.00,9950.00L7250.00,10050.00L7250.00,10150.00L7250.00,10250.00L7250.00,10350.00L7250.00,10450.00L7250.00,10550.00L7250.00,10650.00L7250.00,10750.00L7250.00,10850.00L7250.00,10950.00L7250.00,11050.00L7250.00,11150.00L7250.00,11250.00L7250.00,11350.00L7250.00,11450.00L7250.00,11550.00L7250.00,11650.00L7250.00,11750.00L7250.00,11850.00L7250.00,11950.00L7250.00,12050.00L7250.00,12150.00L7250.00,12250.00L7250.00,12350.00L7250.00,12450.00L7250.00,12550.00L7250.00,12650.00L7250.00,12750.00L7250.00,12850.00L7250.00,12950.00L7250.00,13050.00L7250.00,13150.00L7250.00,13250.00L7250.00,13350.00L7250.00,13450.00L7250.00,13550.00L7250.00,13650.00L7250.00,13750.00L7250.00,13850.00L7250.00,13950.00L7250.00,14050.00L7250.00,14150.00L7250.00,14250.00L7250.00,14350.00L7250.00,14450.00L7250.00,14550.00L7250.00,14650.00L7250.00,14750.00L7250.00,14850.00L7250.00,14950.00L7250.00,15050.00L7250.00,15150.00L7250.00,15250.00L7250.00,15350.00L7250.00,15450.00L7250.00,15550.00L7250.00,15650.00L7250.00,15750.00L7250.00,15850.00L7250.00,15950.00L7250.00,16050.00L7250.00,16150.00L7250.00,16250.00L7250.00,16350.00L7250.00,16450.00L7250.00,16550.00L7250.00,16650.00L7250.00,16750.00L7250.00,16850.00L7250.00,16950.00L7250.00,17050.00L7250.00,17150.00L7250.00,17250.00L7250.00,17350.00L7250.00,17450.00L7250.00,17550.00L7250.00,17650.00L7250.00,17750.00L7250.00,17850.00L7250.00,17950.00L7250.00,18050.00L7250.00,18150.00L7250.00,18250.00L7250.00,18350.00L7250.00,18450.00L7250.00,18550.00L7250.00,18650.00L7250.00,18750.00L7250.00,18850.00L7250.00,18950.00L7250.00,19050.00L7250.00,19150.00L7250.00,19250.00L7250.00,19350.00L7250.00,19450.00L7250.00,19550.00L7250.00,19650.00L7250.00,19750.00L7250.00,19850.00L7250.00,19950.00L7250.00,20050.00L7250.00,20150.00L7250.00,20250.00L7250.00,20350.00L7250.00,20450.00L7250.00,20550.00L7250.00,20650.00L7250.00,20750.00L7250.00,20850.00L7250.00,20950.00L7250.00,21050.00L7250.00,21150.00L7250.00,21250.00L7250.00,21350.00L7250.00,21450.00L7250.00,21550.00L7250.00,21650.00L7250.00,21750.00L7250.00,21850.00L7250.00,21950.00L7250.00,22050.00L7250.00,22150.00L7250.00,22250.00L7250.00,22350.00L7250.00,22450.00L7250.00,22550.00L7250.00,22650.00L7250.00,22750.00L7250.00,22850.00L7250.00,22950.00L7250.00,23050.00L7250.00,23150.00L7250.00,23250.00L7250.00,23350.00L7250.00,23450.00L7250.00,23550.00L7250.00,23650.00L7250.00,23750.00L7250.00,23850.00L7250.00,23950.00L7250.00,24050.00L7250.00,24150.00L7250.00,24250.00L7250.00,24350.00L7250.00,24450.00L7250.00,24550.00L7250.00,24650.00L7250.00,24750.00L7250.00,24850.00L7250.00,24950.00L7250.00,25050.00L7250.00,25150.00Z" fill="none" stroke="#c83c3c" stroke-width="100.00" stroke-linecap="round" stroke-linejoin="round"/><path d="M8150.00,9650.00L8050.00,9650.00L7950.00,9650.00L7850.00,9650.00L7750.00,9650.00L7650.00,9650.00L7550.00,9650.00L7450.00,9650.00L7350.00,9650.00L7250.00,9650.00L7150.00,9650.00L7050.00,9650.00L6950.00,9650.00L6850.00,9650.00L6750.00,9650.00L6650.00,9650.00L6550.00,9650.00L6450.00,9650.00L6350.00,9650.00L6250.00,9650.00L6150.00,9650.00L6050.00,9650.00L5950.00,9650.00L5850.00,9650.00L5750.00,9650.00L5650.00,9650.00L5550.00,9650.00L5450.00,9650.00L5350.00,9650.00L5250.00,9650.00L5150.00,9650.00L5050.00,9650.00L4950.00,9650.00L4850.00,9650.00L4750.00,9650.00L4650.00,9650.00L4550.00,9650.00L4450.00,9650.00L4350.00,9650.00L4250.00,9650.00L4150.00,9650.00L4050.00,9650.00L3950.00,9650.00L3850.00,9650.00L3750.00,9650.00L3650.00,9650.00L3550.00,9650.00L3450.00,9650.00L3450.00,9750.00L3450.00,9850.00L3450.00,9950.00L3450.00,10050.00L3450.00,10150.00L3450.00,10250.00L3450.00,10350.00L3450.00,10450.00L3450.00,10550.00L3450.00,10650.00L3450.00,10750.00L3450.00,10850.00L3450.00,10950.00L3450.00,11050.00L3450.00,11150.00L3450.00,11250.00L3450.00,11350.00L3450.00,11450.00L3450.00,11550.00L3450.00,11650.00L3450.00,11750.00L3450.00,11850.00L3450.00,11950.00L3450.00,12050.00L3450.00,12150.00L3450.00,12250.00L3450.00,12350.00L3450.00,12450.00L3450.00,12550.00L3450.00,12650.00L3450.00,12750.00L3450.00,12850.00L3450.00,12950.00L3450.00,13050.00L3450.00,13150.00L3450.00,13250.00L3450.00,13350.00L3450.00,13450.00L3450.00,13550.00L3450.00,13650.00L3450.00,13750.00L3450.00,13850.00L3450.00,13950.00L3450.00,14050.00L3450.00,14150.00L3450.00,14250.00L3450.00,14350.00L3450.00,14450.00L3450.00,14550.00L3450.00,14650.00L3450.00,14750.00L3450.00,14850.00L3450.00,14950.00L3450.00,15050.00L3450.00,15150.00L3450.00,15250.00L3450.00,15350.00L3450.00,15450.00L3450.00,15550.00L3450.00,15650.00L3450.00,15750.00L3450.00,15850.00L3450.00,15950.00L3450.00,16050.00L3450.00,16150.00L3450.00,16250.00L3450.00,16350.00L3450.00,16450.00L3450.00,16550.00L3450.00,16650.00L3450.00,16750.00L3450.00,16850.00L3450.00,16950.00L3450.00,17050.00L3450.00,17150.00L3450.00,17250.00L3450.00,17350.00L3450.00,17450.00L3450.00,17550.00L3450.00,17650.00L3450.00,17750.00L3450.00,17850.00L3450.00,17950.00L3450.00,18050.00L3450.00,18150.00L3450.00,18250.00L3450.00,18350.00L3450.00,18450.00L3450.00,18550.00L3450.00,18650.00L3450.00,18750.00L3450.00,18850.00L3450.00,18950.00L3450.00,19050.00L3450.00,19150.00L3450.00,19250.00L3450.00,19350.00L3450.00,19450.00L3450.00,19550.00L3450.00,19650.00L3450.00,19750.00L3450.00,19850.00L3450.00,19950.00L3450.00,20050.00L3450.00,20150.00L3450.00,20250.00L3450.00,20350.00L3450.00,20450.00L3450.00,20550.00L3450.00,20650.00L3450.00,20750.00L3450.00,20850.00L3450.00,20950.00L3450.00,21050.00L3450.00,21150.00L3450.00,21250.00Z" fill="none" stroke="#c83c3c" stroke-width="100.00" stroke-linecap="round" stroke-linejoin="round"/><path d="M24250.00,7150.00L24150.00,7150.00L24050.00,7150.00L23950.00,7150.00L23850.00,7150.00L23750.00,7150.00L23650.00,7150.00L23550.00,7150.00L23450.00,7150.00L23350.00,7150.00L23250.00,7150.00L23150.00,7150.00L23050.00,7150.00L22950.00,7150.00L22850.00,7150.00L22750.00,7150.00L22650.00,7150.00L22550.00,7150.00L22450.00,7150.00L22350.00,7150.00L22250.00,7150.00L22150.00,7150.00L22050.00,7150.00L21950.00,7150.00L21850.00,7150.00L21750.00,7150.00L21650.00,7150.00L21550.00,7150.00L21450.00,7150.00L21350.00,7150.00L21250.00,7150.00L21150.00,7150.00L21050.00,7150.00L20950.00,7150.00L20850.00,7150.00L20750.00,7150.00L20650.00,7150.00L20550.00,7150.00L20450.00,7150.00L20350.00,7150.00L20250.00,7150.00L20150.00,7150.00L20050.00,7150.00L19950.00,7150.00L19850.00,7150.00L19750.00,7150.00L19650.00,7150.00L19550.00,7150.00L19450.00,7150.00L19350.00,7150.00L19250.00,7150.00L19150.00,7150.00L19050.00,7150.00L18950.00,7150.00L18850.00,7150.00L18750.00,7150.00L18650.00,7150.00L18550.00,7150.00L18450.00,7150.00L18350.00,7150.00L18250.00,7150.00L18150.00,7150.00L18050.00,7150.00L17950.00,7150.00L17850.00,7150.00L17750.00,7150.00L17650.00,7150.00L17550.00,7150.00L17450.00,7150.00L17450.00,7050.00L17450.00,6950.00L17450.00,6850.00L17450.00,6750.00L17450.00,6650.00L17450.00,6550.00L17450.00,6450.00L17450.00,6350.00L17450.00,6250.00L17450.00,6150.00Z" fill="none" stroke="#c83c3c" stroke-width="100.00" stroke-linecap="round" stroke-linejoin="round"/><path d="M17450.00,7150.00L17350.00,7150.00L17250.00,7150.00L17150.00,7150.00L17050.00,7150.00L16950.00,7150.00L16850.00,7150.00L16750.00,7150.00L16650.00,7150.00L16550.00,7150.00L16450.00,7150.00L16350.00,7150.00L16250.00,7150.00L16150.00,7150.00L16050.00,7150.00L15950.00,7150.00L15850.00,7150.00L15750.00,7150.00L15650.00,7150.00L15550.00,7150.00L15450.00,7150.00L15350.00,7150.00L15250.00,7150.00L15150.00,7150.00L15050.00,7150.00L14950.00,7150.00L14850.00,7150.00L14750.00,7150.00L14650.00,7150.00L14550.00,7150.00L14450.00,7150.00L14350.00,7150.00L14250.00,7150.00L14150.00,7150.00L14050.00,7150.00L13950.00,7150.00L13850.00,7150.00L13750.00,7150.00L13650.00,7150.00L13550.00,7150.00L13450.00,7150.00L13350.00,7150.00L13250.00,7150.00L13150.00,7150.00L13050.00,7150.00L12950.00,7150.00L12850.00,7150.00L12750.00,7150.00L12650.00,7150.00L12550.00,7150.00L12450.00,7150.00L12350.00,7150.00L12250.00,7150.00L12150.00,7150.00L12050.00,7150.00L11950.00,7150.00L11850.00,7150.00L11750.00,7150.00L11650.00,7150.00L11550.00,7150.00L11450.00,7150.00L11350.00,7150.00L11250.00,7150.00L11150.00,7150.00L11050.00,7150.00L10950.00,7150.00L10850.00,7150.00L10750.00,7150.00L10650.00,7150.00L10550.00,7150.00L10450.00,7150.00L10350.00,7150.00L10250.00,7150.00L10150.00,7150.00L10050.00,7150.00L9950.00,7150.00L9850.00,7150.00L9750.00,7150.00L9650.00,7150.00L9550.00,7150.00L9450.00,7150.00L9350.00,7150.00L9250.00,7150.00L9150.00,7150.00L9050.00,7150.00L8950.00,7150.00L8850.00,7150.00L8750.00,7150.00L8650.00,7150.00L8550.00,7150.00L8450.00,7150.00L8350.00,7150.00L8250.00,7150.00L8150.00,7150.00L8050.00,7150.00L7950.00,7150.00L7850.00,7150.00L7750.00,7150.00L7650.00,7150.00L7550.00,7150.00L7450.00,7150.00L7350.00,7150.00L7250.00,7150.00L7150.00,7150.00L7050.00,7150.00L6950.00,7150.00L6850.00,7150.00L6750.00,7150.00L6650.00,7150.00L6550.00,7150.00L6450.00,7150.00L6350.00,7150.00L6250.00,7150.00L6150.00,7150.00L6050.00,7150.00L5950.00,7150.00L5850.00,7150.00L5750.00,7150.00L5650.00,7150.00L5550.00,7150.00L5450.00,7150.00L5350.00,7150.00L5250.00,7150.00L5150.00,7150.00L5050.00,7150.00L4950.00,7150.00L4850.00,7150.00L4750.00,7150.00L4650.00,7150.00L4550.00,7150.00L4450.00,7150.00L4350.00,7150.00L4250.00,7150.00L4150.00,7150.00L4050.00,7150.00L3950.00,7150.00L3850.00,7150.00L3750.00,7150.00L3650.00,7150.00L3550.00,7150.00L3450.00,7150.00L3450.00,7250.00L3450.00,7350.00L3450.00,7450.00L3450.00,7550.00L3450.00,7650.00L3450.00,7750.00L3450.00,7850.00L3450.00,7950.00L3450.00,8050.00L3450.00,8150.00L3450.00,8250.00L3450.00,8350.00L3450.00,8450.00L3450.00,8550.00L3450.00,8650.00L3450.00,8750.00L3450.00,8850.00L3450.00,8950.00L3450.00,9050.00L3450.00,9150.00L3450.00,9250.00L3450.00,9350.00L3450.00,9450.00L3450.00,9550.00L3450.00,9650.00L3450.00,9750.00L3450.00,9850.00L3450.00,9950.00L3450.00,10050.00L3450.00,10150.00L3450.00,10250.00L3450.00,10350.00L3450.00,10450.00L3450.00,10550.00L3450.00,10650.00L3450.00,10750.00L3450.00,10850.00L3450.00,10950.00L3450.00,11050.00L3450.00,11150.00L3450.00,11250.00L3450.00,11350.00L3450.00,11450.00L3450.00,11550.00L3450.00,11650.00L3450.00,11750.00L3450.00,11850.00L3450.00,11950.00L3450.00,12050.00L3450.00,12150.00L3450.00,12250.00L3450.00,12350.00L3450.00,12450.00L3450.00,12550.00L3450.00,12650.00L3450.00,12750.00L3450.00,12850.00L3450.00,12950.00L3450.00,13050.00L3450.00,13150.00L3450.00,13250.00L3450.00,13350.00L3450.00,13450.00L3450.00,13550.00L3450.00,13650.00L3450.00,13750.00L3450.00,13850.00L3450.00,13950.00L3450.00,14050.00L3450.00,14150.00L3450.00,14250.00L3450.00,14350.00L3450.00,14450.00L3450.00,14550.00L3450.00,14650.00L3450.00,14750.00L3450.00,14850.00L3450.00,14950.00L3450.00,15050.00L3450.00,15150.00L3450.00,15250.00L3450.00,15350.00L3450.00,15450.00L3450.00,15550.00L3450.00,15650.00L3450.00,15750.00L3450.00,15850.00L3450.00,15950.00L3450.00,16050.00L3450.00,16150.00L3450.00,16250.00L3450.00,16350.00L3450.00,16450.00L3450.00,16550.00L3450.00,16650.00L3450.00,16750.00L3450.00,16850.00L3450.00,16950.00L3450.00,17050.00L3450.00,17150.00L3450.00,17250.00L3450.00,17350.00L3450.00,17450.00L3450.00,17550.00L3450.00,17650.00L3450.00,17750.00Z" fill="none" stroke="#c83c3c" stroke-width="100.00" stroke-linecap="round" stroke-linejoin="round"/><path d="M3450.00,17750.00L3450.00,17850.00L3450.00,17950.00L3450.00,18050.00L3450.00,18150.00L3450.00,18250.00L3450.00,18350.00L3450.00,18450.00L3450.00,18550.00L3450.00,18650.00L3450.00,18750.00L3450.00,18850.00L3450.00,18950.00L3450.00,19050.00L3450.00,19150.00L3450.00,19250.00L3450.00,19350.00L3450.00,19450.00L3450.00,19550.00L3450.00,19650.00L3450.00,19750.00L3450.00,19850.00L3450.00,19950.00L3450.00,20050.00L3450.00,20150.00L3450.00,20250.00L3450.00,20350.00L3450.00,20450.00L3450.00,20550.00L3450.00,20650.00L3450.00,20750.00L3450.00,20850.00L3450.00,20950.00L3450.00,21050.00L3450.00,21150.00L3450.00,21250.00L3450.00,21350.00L3450.00,21450.00L3450.00,21550.00L3450.00,21650.00L3450.00,21750.00L3450.00,21850.00L3450.00,21950.00L3450.00,22050.00L3450.00,22150.00L3450.00,22250.00L3450.00,22350.00L3450.00,22450.00L3450.00,22550.00L3450.00,22650.00L3450.00,22750.00L3450.00,22850.00L3450.00,22950.00L3450.00,23050.00L3450.00,23150.00L3450.00,23250.00L3450.00,23350.00L3450.00,23450.00L3450.00,23550.00L3450.00,23650.00L3450.00,23750.00L3450.00,23850.00L3450.00,23950.00L3450.00,24050.00L3450.00,24150.00L3450.00,24250.00L3450.00,24350.00L3450.00,24450.00L3450.00,24550.00L3450.00,24650.00L3450.00,24750.00Z" fill="none" stroke="#c83c3c" stroke-width="100.00" stroke-linecap="round" stroke-linejoin="round"/><circle cx="8293.11" cy="25150.44" r="141.50" fill="#dcb428" stroke="#000000" stroke-width="0.3"/><circle cx="7293.11" cy="25150.44" r="141.50" fill="#dcb428" stroke="#000000" stroke-width="0.3"/><circle cx="8109.77" cy="4577.00" r="141.50" fill="#dcb428" stroke="#000000" stroke-width="0.3"/><circle cx="8109.77" cy="7117.00" r="141.50" fill="#dcb428" stroke="#000000" stroke-width="0.3"/><circle cx="8109.77" cy="9657.00" r="141.50" fill="#dcb428" stroke="#000000" stroke-width="0.3"/><circle cx="8109.77" cy="12197.00" r="141.50" fill="#dcb428" stroke="#000000" stroke-width="0.3"/><circle cx="8109.77" cy="14737.00" r="141.50" fill="#dcb428" stroke="#000000" stroke-width="0.3"/><circle cx="8109.77" cy="17277.00" r="141.50" fill="#dcb428" stroke="#000000" stroke-width="0.3"/><circle cx="8109.77" cy="19817.00" r="141.50" fill="#dcb428" stroke="#000000" stroke-width="0.3"/><circle cx="24274.77" cy="19817.00" r="141.50" fill="#dcb428" stroke="#000000" stroke-width="0.3"/><circle cx="24274.77" cy="17277.00" r="141.50" fill="#dcb428" stroke="#000000" stroke-width="0.3"/><circle cx="24274.77" cy="14737.00" r="141.50" fill="#dcb428" stroke="#000000" stroke-width="0.3"/><circle cx="24274.77" cy="12197.00" r="141.50" fill="#dcb428" stroke="#000000" stroke-width="0.3"/><circle cx="24274.77" cy="9657.00" r="141.50" fill="#dcb428" stroke="#000000" stroke-width="0.3"/><circle cx="24274.77" cy="7117.00" r="141.50" fill="#dcb428" stroke="#000000" stroke-width="0.3"/><circle cx="24274.77" cy="4577.00" r="141.50" fill="#dcb428" stroke="#000000" stroke-width="0.3"/><circle cx="11719.77" cy="11815.00" r="141.50" fill="#dcb428" stroke="#000000" stroke-width="0.3"/><circle cx="11719.77" cy="9910.00" r="141.50" fill="#dcb428" stroke="#000000" stroke-width="0.3"/><circle cx="14894.77" cy="3565.00" r="141.50" fill="#dcb428" stroke="#000000" stroke-width="0.3"/><circle cx="17434.77" cy="3565.00" r="141.50" fill="#dcb428" stroke="#000000" stroke-width="0.3"/><circle cx="14894.77" cy="6105.00" r="141.50" fill="#dcb428" stroke="#000000" stroke-width="0.3"/><circle cx="17434.77" cy="6105.00" r="141.50" fill="#dcb428" stroke="#000000" stroke-width="0.3"/><circle cx="14894.77" cy="8645.00" r="141.50" fill="#dcb428" stroke="#000000" stroke-width="0.3"/><circle cx="17434.77" cy="8645.00" r="141.50" fill="#dcb428" stroke="#000000" stroke-width="0.3"/><circle cx="14894.77" cy="11185.00" r="141.50" fill="#dcb428" stroke="#000000" stroke-width="0.3"/><circle cx="17434.77" cy="11185.00" r="141.50" fill="#dcb428" stroke="#000000" stroke-width="0.3"/><circle cx="17839.00" cy="27614.00" r="141.50" fill="#dcb428" stroke="#000000" stroke-width="0.3"/><circle cx="17839.00" cy="25614.00" r="141.50" fill="#dcb428" stroke="#000000" stroke-width="0.3"/><circle cx="3423.00" cy="28229.00" r="141.50" fill="#dcb428" stroke="#000000" stroke-width="0.3"/><circle cx="3423.00" cy="24729.00" r="141.50" fill="#dcb428" stroke="#000000" stroke-width="0.3"/><circle cx="3423.00" cy="21229.00" r="141.50" fill="#dcb428" stroke="#000000" stroke-width="0.3"/><circle cx="3423.00" cy="17729.00" r="141.50" fill="#dcb428" stroke="#000000" stroke-width="0.3"/></svg>