<svg xmlns="http://www.w3.org/2000/svg" viewBox="0 0 47876.0 24476.0" width="1200" height="613"><rect width="100%" height="100%" fill="#141414"/><path d="M45938.00,22538.00L1938.00,22538.00L1938.00,1938.00L45938.00,1938.00L45938.00,22538.00Z" fill="#1e3c1e" stroke="#b4dcb4" stroke-width="0.5"/><path d="M16464.70,14399.60L16464.70,13837.00Z" fill="none" stroke="#c83c3c" stroke-width="200.00" stroke-linecap="round" stroke-linejoin="round"/><path d="M16127.30,14737.00L16464.70,14399.60Z" fill="none" stroke="#c83c3c" stroke-width="200.00" stroke-linecap="round" stroke-linejoin="round"/><path d="M15438.00,14737.00L16127.30,14737.00Z" fill="none" stroke="#c83c3c" stroke-width="200.00" stroke-linecap="round" stroke-linejoin="round"/><path d="M15438.00,13837.00L16464.70,13837.00Z" fill="none" stroke="#c83c3c" stroke-width="200.00" stroke-linecap="round" stroke-linejoin="round"/><path d="M19721.30,19020.30L15438.00,14737.00Z" fill="none" stroke="#3c78dc" stroke-width="200.00" stroke-linecap="round" stroke-linejoin="round"/><path d="M21270.90,19020.30L19721.30,19020.30Z" fill="none" stroke="#3c78dc" stroke-width="200.00" stroke-linecap="round" stroke-linejoin="round"/><path d="M22625.50,17665.70L21270.90,19020.30Z" fill="none" stroke="#3c78dc" stroke-width="200.00" stroke-linecap="round" stroke-linejoin="round"/><path d="M22625.50,13724.50L22625.50,17665.70Z" fill="none" stroke="#3c78dc" stroke-width="200.00" stroke-linecap="round" stroke-linejoin="round"/><path d="M27386.30,4038.00L34738.00,4038.00Z" fill="none" stroke="#3c78dc" stroke-width="200.00" stroke-linecap="round" stroke-linejoin="round"/><path d="M22063.00,9361.30L27386.30,4038.00Z" fill="none" stroke="#3c78dc" stroke-width="200.00" stroke-linecap="round" stroke-linejoin="round"/><path d="M22063.00,10849.50L22063.00,9361.30Z" fill="none" stroke="#3c78dc" stroke-width="200.00" stroke-linecap="round" stroke-linejoin="round"/><path d="M22125.50,10849.50L22063.00,10849.50L21625.50,10849.50Z" fill="none" stroke="#3c78dc" stroke-width="200.00" stroke-linecap="round" stroke-linejoin="round"/><path d="M36389.70,4638.00L35789.70,4038.00Z" fill="none" stroke="#c83c3c" stroke-width="200.00" stroke-linecap="round" stroke-linejoin="round"/><path d="M39738.00,4638.00L36389.70,4638.00Z" fill="none" stroke="#c83c3c" stroke-width="200.00" stroke-linecap="round" stroke-linejoin="round"/><path d="M34738.00,4038.00L35789.70,4038.00Z" fill="none" stroke="#c83c3c" stroke-width="200.00" stroke-linecap="round" stroke-linejoin="round"/><path d="M31245.00,18138.00L36558.00,12825.00Z" fill="none" stroke="#c83c3c" stroke-width="200.00" stroke-linecap="round" stroke-linejoin="round"/><path d="M25838.00,18138.00L31245.00,18138.00Z" fill="none" stroke="#c83c3c" stroke-width="200.00" stroke-linecap="round" stroke-linejoin="round"/><path d="M31353.80,12825.00L30423.00,13755.80Z" fill="none" stroke="#c83c3c" stroke-width="200.00" stroke-linecap="round" stroke-linejoin="round"/><path d="M34283.00,12825.00L31353.80,12825.00Z" fill="none" stroke="#c83c3c" stroke-width="200.00" stroke-linecap="round" stroke-linejoin="round"/><path d="M30423.00,14682.50L30423.00,13755.80Z" fill="none" stroke="#c83c3c" stroke-width="200.00" stroke-linecap="round" stroke-linejoin="round"/><path d="M14844.50,3461.20L14844.00,3461.70Z" fill="none" stroke="#c83c3c" stroke-width="200.00" stroke-linecap="round" stroke-linejoin="round"/><path d="M16801.30,3461.20L14844.50,3461.20Z" fill="none" stroke="#c83c3c" stroke-width="200.00" stroke-linecap="round" stroke-linejoin="round"/><path d="M14871.50,6186.50L14871.00,6187.00Z" fill="none" stroke="#c83c3c" stroke-width="200.00" stroke-linecap="round" stroke-linejoin="round"/><path d="M16805.30,6186.50L14871.50,6186.50Z" fill="none" stroke="#c83c3c" stroke-width="200.00" stroke-linecap="round" stroke-linejoin="round"/><path d="M38475.00,11875.00L38538.00,11938.00Z" fill="none" stroke="#c83c3c" stroke-width="200.00" stroke-linecap="round" stroke-linejoin="round"/><path d="M36558.00,11875.00L38475.00,11875.00Z" fill="none" stroke="#c83c3c" stroke-width="200.00" stroke-linecap="round" stroke-linejoin="round"/><path d="M21757.60,19940.60L22913.00,21096.00Z" fill="none" stroke="#c83c3c" stroke-width="200.00" stroke-linecap="round" stroke-linejoin="round"/><path d="M21757.60,17787.70L21757.60,19940.60Z" fill="none" stroke="#c83c3c" stroke-width="200.00" stroke-linecap="round" stroke-linejoin="round"/><path d="M21225.40,17255.50L21757.60,17787.70Z" fill="none" stroke="#c83c3c" stroke-width="200.00" stroke-linecap="round" stroke-linejoin="round"/><path d="M21225.40,16382.20L21225.40,17255.50Z" fill="none" stroke="#c83c3c" stroke-width="200.00" stroke-linecap="round" stroke-linejoin="round"/><path d="M21581.40,16026.20L21225.40,16382.20Z" fill="none" stroke="#c83c3c" stroke-width="200.00" stroke-linecap="round" stroke-linejoin="round"/><path d="M32284.00,16026.20L21581.40,16026.20Z" fill="none" stroke="#c83c3c" stroke-width="200.00" stroke-linecap="round" stroke-linejoin="round"/><path d="M35226.50,13083.70L32284.00,16026.20Z" fill="none" stroke="#c83c3c" stroke-width="200.00" stroke-linecap="round" stroke-linejoin="round"/><path d="M35226.50,12953.00L35226.50,13083.70Z" fill="none" stroke="#c83c3c" stroke-width="200.00" stroke-linecap="round" stroke-linejoin="round"/><path d="M36304.50,11875.00L35226.50,12953.00Z" fill="none" stroke="#c83c3c" stroke-width="200.00" stroke-linecap="round" stroke-linejoin="round"/><path d="M36558.00,11875.00L36304.50,11875.00Z" fill="none" stroke="#c83c3c" stroke-width="200.00" stroke-linecap="round" stroke-linejoin="round"/><path d="M36589.70,17388.00L36039.70,17938.00Z" fill="none" stroke="#c83c3c" stroke-width="300.00" stroke-linecap="round" stroke-linejoin="round"/><path d="M39738.00,17388.00L36589.70,17388.00Z" fill="none" stroke="#c83c3c" stroke-width="300.00" stroke-linecap="round" stroke-linejoin="round"/><path d="M35488.90,17938.00L35410.10,17938.00Z" fill="none" stroke="#c83c3c" stroke-width="300.00" stroke-linecap="round" stroke-linejoin="round"/><path d="M34938.00,17938.00L35410.10,17938.00Z" fill="none" stroke="#c83c3c" stroke-width="300.00" stroke-linecap="round" stroke-linejoin="round"/><path d="M35488.90,17938.00L36039.70,17938.00Z" fill="none" stroke="#c83c3c" stroke-width="300.00" stroke-linecap="round" stroke-linejoin="round"/><path d="M23710.90,18935.90L22913.00,18138.00Z" fill="none" stroke="#c83c3c" stroke-width="300.00" stroke-linecap="round" stroke-linejoin="round"/><path d="M34412.20,18935.90L23710.90,18935.90Z" fill="none" stroke="#c83c3c" stroke-width="300.00" stroke-linecap="round" stroke-linejoin="round"/><path d="M35410.10,17938.00L34412.20,18935.90Z" fill="none" stroke="#c83c3c" stroke-width="300.00" stroke-linecap="round" stroke-linejoin="round"/><path d="M22913.00,17738.70L22913.00,18138.00Z" fill="none" stroke="#c83c3c" stroke-width="300.00" stroke-linecap="round" stroke-linejoin="round"/><path d="M21862.50,16688.20L22913.00,17738.70Z" fill="none" stroke="#c83c3c" stroke-width="300.00" stroke-linecap="round" stroke-linejoin="round"/><path d="M21862.50,13724.50L21862.50,16688.20Z" fill="none" stroke="#3c78dc" stroke-width="300.00" stroke-linecap="round" stroke-linejoin="round"/><path d="M21625.50,13724.50L21862.50,13724.50L22125.50,13724.50Z" fill="none" stroke="#3c78dc" stroke-width="300.00" stroke-linecap="round" stroke-linejoin="round"/><path d="M20028.80,12037.00L20438.00,12037.00Z" fill="none" stroke="#3c78dc" stroke-width="200.00" stroke-linecap="round" stroke-linejoin="round"/><path d="M18878.10,10886.30L20028.80,12037.00Z" fill="none" stroke="#3c78dc" stroke-width="200.00" stroke-linecap="round" stroke-linejoin="round"/><path d="M18878.10,7930.10L18878.10,10886.30Z" fill="none" stroke="#3c78dc" stroke-width="200.00" stroke-linecap="round" stroke-linejoin="round"/><path d="M18101.30,4421.80L18101.30,3626.20Z" fill="none" stroke="#3c78dc" stroke-width="200.00" stroke-linecap="round" stroke-linejoin="round"/><path d="M18939.00,5259.50L18101.30,4421.80Z" fill="none" stroke="#3c78dc" stroke-width="200.00" stroke-linecap="round" stroke-linejoin="round"/><path d="M19236.30,3626.20L19401.30,3461.20Z" fill="none" stroke="#c83c3c" stroke-width="200.00" stroke-linecap="round" stroke-linejoin="round"/><path d="M18101.30,3626.20L19236.30,3626.20Z" fill="none" stroke="#c83c3c" stroke-width="200.00" stroke-linecap="round" stroke-linejoin="round"/><path d="M25811.50,10415.00L28308.00,10415.00Z" fill="none" stroke="#c83c3c" stroke-width="200.00" stroke-linecap="round" stroke-linejoin="round"/><path d="M24024.40,12037.00L23313.00,12037.00Z" fill="none" stroke="#3c78dc" stroke-width="200.00" stroke-linecap="round" stroke-linejoin="round"/><path d="M24864.80,11196.60L24024.40,12037.00Z" fill="none" stroke="#3c78dc" stroke-width="200.00" stroke-linecap="round" stroke-linejoin="round"/><path d="M21125.50,9274.20L21125.50,10849.50Z" fill="none" stroke="#3c78dc" stroke-width="200.00" stroke-linecap="round" stroke-linejoin="round"/><path d="M20015.40,8164.10L21125.50,9274.20Z" fill="none" stroke="#3c78dc" stroke-width="200.00" stroke-linecap="round" stroke-linejoin="round"/><path d="M19405.30,7126.40L19405.30,6186.50Z" fill="none" stroke="#c83c3c" stroke-width="200.00" stroke-linecap="round" stroke-linejoin="round"/><path d="M19498.20,7219.30L19405.30,7126.40Z" fill="none" stroke="#c83c3c" stroke-width="200.00" stroke-linecap="round" stroke-linejoin="round"/><path d="M23313.00,10767.10L23313.00,11537.00Z" fill="none" stroke="#3c78dc" stroke-width="300.00" stroke-linecap="round" stroke-linejoin="round"/><path d="M23534.80,10545.30L23313.00,10767.10Z" fill="none" stroke="#3c78dc" stroke-width="300.00" stroke-linecap="round" stroke-linejoin="round"/><path d="M23313.00,12537.00L23676.10,12537.00Z" fill="none" stroke="#3c78dc" stroke-width="300.00" stroke-linecap="round" stroke-linejoin="round"/><path d="M24264.10,12861.80L24304.50,12902.20Z" fill="none" stroke="#3c78dc" stroke-width="300.00" stroke-linecap="round" stroke-linejoin="round"/><path d="M19355.00,12902.20L18286.00,13971.20Z" fill="none" stroke="#c83c3c" stroke-width="300.00" stroke-linecap="round" stroke-linejoin="round"/><path d="M24304.50,12902.20L19355.00,12902.20Z" fill="none" stroke="#c83c3c" stroke-width="300.00" stroke-linecap="round" stroke-linejoin="round"/><path d="M19503.80,13971.20L20438.00,13037.00Z" fill="none" stroke="#3c78dc" stroke-width="300.00" stroke-linecap="round" stroke-linejoin="round"/><path d="M18286.00,13971.20L19503.80,13971.20Z" fill="none" stroke="#3c78dc" stroke-width="300.00" stroke-linecap="round" stroke-linejoin="round"/><path d="M4483.40,3461.70L4264.70,3243.00Z" fill="none" stroke="#c83c3c" stroke-width="300.00" stroke-linecap="round" stroke-linejoin="round"/><path d="M11886.00,3461.70L4483.40,3461.70Z" fill="none" stroke="#c83c3c" stroke-width="300.00" stroke-linecap="round" stroke-linejoin="round"/><path d="M3163.00,3243.00L4264.70,3243.00Z" fill="none" stroke="#c83c3c" stroke-width="300.00" stroke-linecap="round" stroke-linejoin="round"/><path d="M9195.20,6187.00L11913.00,6187.00Z" fill="none" stroke="#c83c3c" stroke-width="300.00" stroke-linecap="round" stroke-linejoin="round"/><path d="M11721.50,3626.20L11886.00,3461.70Z" fill="none" stroke="#c83c3c" stroke-width="300.00" stroke-linecap="round" stroke-linejoin="round"/><path d="M10320.20,3626.20L11721.50,3626.20Z" fill="none" stroke="#c83c3c" stroke-width="300.00" stroke-linecap="round" stroke-linejoin="round"/><path d="M9305.00,9857.00L9305.00,9854.50Z" fill="none" stroke="#c83c3c" stroke-width="300.00" stroke-linecap="round" stroke-linejoin="round"/><path d="M10862.30,14667.00L9305.00,14667.00Z" fill="none" stroke="#c83c3c" stroke-width="300.00" stroke-linecap="round" stroke-linejoin="round"/><path d="M11121.10,14925.80L10862.30,14667.00Z" fill="none" stroke="#c83c3c" stroke-width="300.00" stroke-linecap="round" stroke-linejoin="round"/><path d="M11121.10,10399.50L11248.80,10399.50Z" fill="none" stroke="#c83c3c" stroke-width="300.00" stroke-linecap="round" stroke-linejoin="round"/><path d="M12305.50,10399.50L11248.80,10399.50Z" fill="none" stroke="#c83c3c" stroke-width="300.00" stroke-linecap="round" stroke-linejoin="round"/><path d="M12538.00,10632.00L12305.50,10399.50Z" fill="none" stroke="#c83c3c" stroke-width="300.00" stroke-linecap="round" stroke-linejoin="round"/><path d="M10806.70,9957.40L10806.70,9857.00Z" fill="none" stroke="#c83c3c" stroke-width="300.00" stroke-linecap="round" stroke-linejoin="round"/><path d="M11248.80,10399.50L10806.70,9957.40Z" fill="none" stroke="#c83c3c" stroke-width="300.00" stroke-linecap="round" stroke-linejoin="round"/><path d="M11121.10,10399.50L11121.10,14925.80Z" fill="none" stroke="#3c78dc" stroke-width="300.00" stroke-linecap="round" stroke-linejoin="round"/><path d="M9305.00,9857.00L10806.70,9857.00Z" fill="none" stroke="#c83c3c" stroke-width="300.00" stroke-linecap="round" stroke-linejoin="round"/><path d="M24264.10,12861.80L24066.70,12861.80Z" fill="none" stroke="#3c78dc" stroke-width="250.20" stroke-linecap="round" stroke-linejoin="round"/><path d="M24066.70,12537.00L24066.70,12861.80Z" fill="none" stroke="#3c78dc" stroke-width="300.00" stroke-linecap="round" stroke-linejoin="round"/><path d="M24066.70,12537.00L23676.10,12537.00Z" fill="none" stroke="#3c78dc" stroke-width="250.20" stroke-linecap="round" stroke-linejoin="round"/><path d="M9089.60,6691.70L10320.20,6691.70Z" fill="none" stroke="#3c78dc" stroke-width="300.00" stroke-linecap="round" stroke-linejoin="round"/><path d="M10320.20,3626.20L10320.20,6691.70Z" fill="none" stroke="#3c78dc" stroke-width="300.00" stroke-linecap="round" stroke-linejoin="round"/><path d="M10320.20,9598.60L11121.10,10399.50Z" fill="none" stroke="#3c78dc" stroke-width="300.00" stroke-linecap="round" stroke-linejoin="round"/><path d="M10320.20,6691.70L10320.20,9598.60Z" fill="none" stroke="#3c78dc" stroke-width="300.00" stroke-linecap="round" stroke-linejoin="round"/><path d="M25216.60,11909.30L24264.10,12861.80Z" fill="none" stroke="#3c78dc" stroke-width="300.00" stroke-linecap="round" stroke-linejoin="round"/><path d="M25216.60,11016.60L25216.60,11909.30Z" fill="none" stroke="#3c78dc" stroke-width="300.00" stroke-linecap="round" stroke-linejoin="round"/><path d="M24475.70,10275.70L25216.60,11016.60Z" fill="none" stroke="#3c78dc" stroke-width="300.00" stroke-linecap="round" stroke-linejoin="round"/><path d="M23868.60,10275.70L24475.70,10275.70Z" fill="none" stroke="#3c78dc" stroke-width="300.00" stroke-linecap="round" stroke-linejoin="round"/><path d="M22625.50,9672.10L22625.50,10849.50Z" fill="none" stroke="#3c78dc" stroke-width="200.00" stroke-linecap="round" stroke-linejoin="round"/><path d="M22706.10,9591.50L22625.50,9672.10Z" fill="none" stroke="#3c78dc" stroke-width="200.00" stroke-linecap="round" stroke-linejoin="round"/><path d="M39499.70,20478.00L39738.00,20239.70Z" fill="none" stroke="#c83c3c" stroke-width="300.00" stroke-linecap="round" stroke-linejoin="round"/><path d="M34938.00,20478.00L39499.70,20478.00Z" fill="none" stroke="#c83c3c" stroke-width="300.00" stroke-linecap="round" stroke-linejoin="round"/><path d="M39738.00,19388.00L39738.00,20239.70Z" fill="none" stroke="#c83c3c" stroke-width="300.00" stroke-linecap="round" stroke-linejoin="round"/><path d="M40568.00,10775.00L41731.00,11938.00Z" fill="none" stroke="#c83c3c" stroke-width="300.00" stroke-linecap="round" stroke-linejoin="round"/><path d="M36558.00,10775.00L40568.00,10775.00Z" fill="none" stroke="#c83c3c" stroke-width="300.00" stroke-linecap="round" stroke-linejoin="round"/><path d="M36108.00,10325.00L36558.00,10775.00Z" fill="none" stroke="#c83c3c" stroke-width="300.00" stroke-linecap="round" stroke-linejoin="round"/><path d="M32695.20,10325.00L36108.00,10325.00Z" fill="none" stroke="#c83c3c" stroke-width="300.00" stroke-linecap="round" stroke-linejoin="round"/><path d="M36558.00,10775.00L36558.00,10925.00Z" fill="none" stroke="#c83c3c" stroke-width="300.00" stroke-linecap="round" stroke-linejoin="round"/><path d="M30747.00,19158.80L31186.70,19598.50Z" fill="none" stroke="#3c78dc" stroke-width="300.00" stroke-linecap="round" stroke-linejoin="round"/><path d="M30747.00,11875.00L30747.00,19158.80Z" fill="none" stroke="#3c78dc" stroke-width="300.00" stroke-linecap="round" stroke-linejoin="round"/><path d="M32066.20,20478.00L34938.00,20478.00Z" fill="none" stroke="#c83c3c" stroke-width="300.00" stroke-linecap="round" stroke-linejoin="round"/><path d="M31186.70,19598.50L32066.20,20478.00Z" fill="none" stroke="#c83c3c" stroke-width="300.00" stroke-linecap="round" stroke-linejoin="round"/><path d="M31675.40,10925.00L34283.00,10925.00Z" fill="none" stroke="#c83c3c" stroke-width="200.00" stroke-linecap="round" stroke-linejoin="round"/><path d="M30443.00,9692.60L31675.40,10925.00Z" fill="none" stroke="#c83c3c" stroke-width="200.00" stroke-linecap="round" stroke-linejoin="round"/><path d="M23313.00,14319.60L23426.80,14433.40Z" fill="none" stroke="#3c78dc" stroke-width="200.00" stroke-linecap="round" stroke-linejoin="round"/><path d="M23313.00,13037.00L23313.00,14319.60Z" fill="none" stroke="#3c78dc" stroke-width="200.00" stroke-linecap="round" stroke-linejoin="round"/><path d="M23426.80,14422.20L23426.80,14433.40Z" fill="none" stroke="#c83c3c" stroke-width="200.00" stroke-linecap="round" stroke-linejoin="round"/><path d="M24226.50,13622.50L23426.80,14422.20Z" fill="none" stroke="#c83c3c" stroke-width="200.00" stroke-linecap="round" stroke-linejoin="round"/><path d="M21115.30,18281.70L21011.50,18385.50Z" fill="none" stroke="#3c78dc" stroke-width="200.00" stroke-linecap="round" stroke-linejoin="round"/><path d="M21115.30,14933.40L21115.30,18281.70Z" fill="none" stroke="#3c78dc" stroke-width="200.00" stroke-linecap="round" stroke-linejoin="round"/><path d="M19147.60,18385.50L19020.10,18258.00Z" fill="none" stroke="#c83c3c" stroke-width="200.00" stroke-linecap="round" stroke-linejoin="round"/><path d="M21011.50,18385.50L19147.60,18385.50Z" fill="none" stroke="#c83c3c" stroke-width="200.00" stroke-linecap="round" stroke-linejoin="round"/><path d="M21615.30,14433.40L21115.30,14933.40Z" fill="none" stroke="#c83c3c" stroke-width="200.00" stroke-linecap="round" stroke-linejoin="round"/><path d="M23426.80,14433.40L21615.30,14433.40Z" fill="none" stroke="#c83c3c" stroke-width="200.00" stroke-linecap="round" stroke-linejoin="round"/><path d="M16038.00,18238.00L11338.00,18238.00Z" fill="none" stroke="#c83c3c" stroke-width="200.00" stroke-linecap="round" stroke-linejoin="round"/><path d="M12138.00,18238.00L9338.00,15438.00Z" fill="none" stroke="#c83c3c" stroke-width="200.00" stroke-linecap="round" stroke-linejoin="round"/><path d="M9338.00,15438.00L8838.00,15438.00L7738.00,16538.00Z" fill="none" stroke="#c83c3c" stroke-width="200.00" stroke-linecap="round" stroke-linejoin="round"/><path d="M10138.00,16238.00L12538.00,13838.00Z" fill="none" stroke="#c83c3c" stroke-width="200.00" stroke-linecap="round" stroke-linejoin="round"/><path d="M7738.00,16538.00L3538.00,16538.00Z" fill="none" stroke="#c83c3c" stroke-width="200.00" stroke-linecap="round" stroke-linejoin="round"/><path d="M12538.00,13838.00L12538.00,13538.00L15438.00,10638.00Z" fill="none" stroke="#c83c3c" stroke-width="200.00" stroke-linecap="round" stroke-linejoin="round"/><path d="M15438.00,10638.00L15438.00,9738.00Z" fill="none" stroke="#c83c3c" stroke-width="200.00" stroke-linecap="round" stroke-linejoin="round"/><path d="M7738.00,16538.00L7738.00,16738.00L3138.00,21338.00Z" fill="none" stroke="#c83c3c" stroke-width="200.00" stroke-linecap="round" stroke-linejoin="round"/><path d="M15438.00,10638.00L19038.00,10638.00L20438.00,12038.00Z" fill="none" stroke="#c83c3c" stroke-width="200.00" stroke-linecap="round" stroke-linejoin="round"/><path d="M20338.00,11938.00L19438.00,12838.00L19338.00,12838.00L19238.00,12938.00L19338.00,13038.00L20438.00,13038.00Z" fill="none" stroke="#c83c3c" stroke-width="200.00" stroke-linecap="round" stroke-linejoin="round"/><path d="M20138.00,11738.00L20238.00,11738.00L21138.00,10838.00Z" fill="none" stroke="#c83c3c" stroke-width="200.00" stroke-linecap="round" stroke-linejoin="round"/><path d="M20738.00,11238.00L20838.00,11238.00L21838.00,12238.00Z" fill="none" stroke="#c83c3c" stroke-width="200.00" stroke-linecap="round" stroke-linejoin="round"/><path d="M12738.00,13338.00L9238.00,9838.00L9238.00,9138.00L9338.00,9038.00Z" fill="none" stroke="#c83c3c" stroke-width="200.00" stroke-linecap="round" stroke-linejoin="round"/><path d="M9238.00,9438.00L7738.00,7938.00Z" fill="none" stroke="#c83c3c" stroke-width="200.00" stroke-linecap="round" stroke-linejoin="round"/><path d="M7738.00,7938.00L3538.00,7938.00Z" fill="none" stroke="#c83c3c" stroke-width="200.00" stroke-linecap="round" stroke-linejoin="round"/><path d="M21838.00,12238.00L27238.00,12238.00L28338.00,13338.00Z" fill="none" stroke="#c83c3c" stroke-width="200.00" stroke-linecap="round" stroke-linejoin="round"/><path d="M28338.00,13338.00L29038.00,13338.00L30438.00,14738.00L30938.00,14738.00L31038.00,14638.00Z" fill="none" stroke="#c83c3c" stroke-width="200.00" stroke-linecap="round" stroke-linejoin="round"/><path d="M31038.00,14638.00L31738.00,14638.00Z" fill="none" stroke="#c83c3c" stroke-width="200.00" stroke-linecap="round" stroke-linejoin="round"/><path d="M29238.00,13538.00L30938.00,11838.00Z" fill="none" stroke="#c83c3c" stroke-width="200.00" stroke-linecap="round" stroke-linejoin="round"/><path d="M30938.00,11838.00L30938.00,10338.00L34738.00,6538.00Z" fill="none" stroke="#3c78dc" stroke-width="200.00" stroke-linecap="round" stroke-linejoin="round"/><path d="M34738.00,6538.00L39638.00,6538.00L39738.00,6638.00Z" fill="none" stroke="#3c78dc" stroke-width="200.00" stroke-linecap="round" stroke-linejoin="round"/><path d="M28338.00,13338.00L28338.00,18638.00L25838.00,21138.00Z" fill="none" stroke="#3c78dc" stroke-width="200.00" stroke-linecap="round" stroke-linejoin="round"/><circle cx="21862.50" cy="16688.20" r="287.26" fill="#ffffff" stroke="#888888" stroke-width="0.5"/><circle cx="18101.30" cy="3626.20" r="287.26" fill="#ffffff" stroke="#888888" stroke-width="0.5"/><circle cx="24304.50" cy="12902.20" r="287.26" fill="#ffffff" stroke="#888888" stroke-width="0.5"/><circle cx="18286.00" cy="13971.20" r="287.26" fill="#ffffff" stroke="#888888" stroke-width="0.5"/><circle cx="10320.20" cy="3626.20" r="287.26" fill="#ffffff" stroke="#888888" stroke-width="0.5"/><circle cx="11121.10" cy="14925.80" r="287.26" fill="#ffffff" stroke="#888888" stroke-width="0.5"/><circle cx="11121.10" cy="10399.50" r="287.26" fill="#ffffff" stroke="#888888" stroke-width="0.5"/><circle cx="22706.10" cy="9591.50" r="287.26" fill="#ffffff" stroke="#888888" stroke-width="0.5"/><circle cx="31186.70" cy="19598.50" r="287.26" fill="#ffffff" stroke="#888888" stroke-width="0.5"/><circle cx="23426.80" cy="14433.40" r="287.26" fill="#ffffff" stroke="#888888" stroke-width="0.5"/><circle cx="21115.30" cy="14933.40" r="287.26" fill="#ffffff" stroke="#888888" stroke-width="0.5"/><circle cx="21011.50" cy="18385.50" r="287.26" fill="#ffffff" stroke="#888888" stroke-width="0.5"/><circle cx="16062.10" cy="18258.00" r="239.38" fill="#dcb428" stroke="#000000" stroke-width="0.3"/><circle cx="19020.10" cy="18258.00" r="239.38" fill="#dcb428" stroke="#000000" stroke-width="0.3"/><circle cx="11312.00" cy="18259.00" r="239.38" fill="#dcb428" stroke="#000000" stroke-width="0.3"/><circle cx="14270.00" cy="18259.00" r="239.38" fill="#dcb428" stroke="#000000" stroke-width="0.3"/><circle cx="28308.00" cy="13373.00" r="239.38" fill="#dcb428" stroke="#000000" stroke-width="0.3"/><circle cx="28308.00" cy="10415.00" r="239.38" fill="#dcb428" stroke="#000000" stroke-width="0.3"/><circle cx="25838.00" cy="21096.00" r="239.38" fill="#dcb428" stroke="#000000" stroke-width="0.3"/><circle cx="25838.00" cy="18138.00" r="239.38" fill="#dcb428" stroke="#000000" stroke-width="0.3"/><circle cx="22913.00" cy="21096.00" r="239.38" fill="#dcb428" stroke="#000000" stroke-width="0.3"/><circle cx="22913.00" cy="18138.00" r="239.38" fill="#dcb428" stroke="#000000" stroke-width="0.3"/><circle cx="9305.00" cy="9044.50" r="239.38" fill="#dcb428" stroke="#000000" stroke-width="0.3"/><circle cx="9305.00" cy="9857.00" r="239.38" fill="#dcb428" stroke="#000000" stroke-width="0.3"/><circle cx="9305.00" cy="11012.00" r="239.38" fill="#dcb428" stroke="#000000" stroke-width="0.3"/><circle cx="9305.00" cy="12012.00" r="239.38" fill="#dcb428" stroke="#000000" stroke-width="0.3"/><circle cx="9305.00" cy="12512.00" r="239.38" fill="#dcb428" stroke="#000000" stroke-width="0.3"/><circle cx="9305.00" cy="13512.00" r="239.38" fill="#dcb428" stroke="#000000" stroke-width="0.3"/><circle cx="9305.00" cy="14667.00" r="239.38" fill="#dcb428" stroke="#000000" stroke-width="0.3"/><circle cx="9305.00" cy="15467.00" r="239.38" fill="#dcb428" stroke="#000000" stroke-width="0.3"/><circle cx="9305.00" cy="15467.00" r="239.38" fill="#dcb428" stroke="#000000" stroke-width="0.3"/><circle cx="9305.00" cy="14667.00" r="239.38" fill="#dcb428" stroke="#000000" stroke-width="0.3"/><circle cx="9305.00" cy="14012.00" r="239.38" fill="#dcb428" stroke="#000000" stroke-width="0.3"/><circle cx="9305.00" cy="13012.00" r="239.38" fill="#dcb428" stroke="#000000" stroke-width="0.3"/><circle cx="9305.00" cy="11512.00" r="239.38" fill="#dcb428" stroke="#000000" stroke-width="0.3"/><circle cx="9305.00" cy="10512.00" r="239.38" fill="#dcb428" stroke="#000000" stroke-width="0.3"/><circle cx="9305.00" cy="9854.50" r="239.38" fill="#dcb428" stroke="#000000" stroke-width="0.3"/><circle cx="9305.00" cy="9057.00" r="239.38" fill="#dcb428" stroke="#000000" stroke-width="0.3"/><circle cx="7738.00" cy="7937.00" r="239.38" fill="#dcb428" stroke="#000000" stroke-width="0.3"/><circle cx="3557.00" cy="7937.00" r="239.38" fill="#dcb428" stroke="#000000" stroke-width="0.3"/><circle cx="7738.00" cy="16587.00" r="239.38" fill="#dcb428" stroke="#000000" stroke-width="0.3"/><circle cx="3557.00" cy="16587.00" r="239.38" fill="#dcb428" stroke="#000000" stroke-width="0.3"/><circle cx="14844.00" cy="3461.70" r="239.38" fill="#dcb428" stroke="#000000" stroke-width="0.3"/><circle cx="11886.00" cy="3461.70" r="239.38" fill="#dcb428" stroke="#000000" stroke-width="0.3"/><circle cx="14871.00" cy="6187.00" r="239.38" fill="#dcb428" stroke="#000000" stroke-width="0.3"/><circle cx="11913.00" cy="6187.00" r="239.38" fill="#dcb428" stroke="#000000" stroke-width="0.3"/><circle cx="3163.00" cy="3243.00" r="239.38" fill="#dcb428" stroke="#000000" stroke-width="0.3"/><circle cx="34738.00" cy="4038.00" r="239.38" fill="#dcb428" stroke="#000000" stroke-width="0.3"/><circle cx="34738.00" cy="6578.00" r="239.38" fill="#dcb428" stroke="#000000" stroke-width="0.3"/><circle cx="34938.00" cy="17938.00" r="239.38" fill="#dcb428" stroke="#000000" stroke-width="0.3"/><circle cx="34938.00" cy="20478.00" r="239.38" fill="#dcb428" stroke="#000000" stroke-width="0.3"/><circle cx="63938.00" cy="15588.00" r="239.38" fill="#dcb428" stroke="#000000" stroke-width="0.3"/><circle cx="67163.00" cy="15588.00" r="239.38" fill="#dcb428" stroke="#000000" stroke-width="0.3"/><circle cx="62751.00" cy="8331.00" r="239.38" fill="#dcb428" stroke="#000000" stroke-width="0.3"/><circle cx="65976.00" cy="8331.00" r="239.38" fill="#dcb428" stroke="#000000" stroke-width="0.3"/><circle cx="3138.00" cy="21343.00" r="239.38" fill="#dcb428" stroke="#000000" stroke-width="0.3"/><circle cx="12538.00" cy="10632.00" r="239.38" fill="#dcb428" stroke="#000000" stroke-width="0.3"/><circle cx="12538.00" cy="13825.00" r="239.38" fill="#dcb428" stroke="#000000" stroke-width="0.3"/><circle cx="32383.00" cy="8822.50" r="239.38" fill="#dcb428" stroke="#000000" stroke-width="0.3"/><circle cx="31723.00" cy="8822.50" r="239.38" fill="#dcb428" stroke="#000000" stroke-width="0.3"/><circle cx="31073.00" cy="8822.50" r="239.38" fill="#dcb428" stroke="#000000" stroke-width="0.3"/><circle cx="30423.00" cy="8822.50" r="239.38" fill="#dcb428" stroke="#000000" stroke-width="0.3"/><circle cx="30423.00" cy="14682.50" r="239.38" fill="#dcb428" stroke="#000000" stroke-width="0.3"/><circle cx="31073.00" cy="14682.50" r="239.38" fill="#dcb428" stroke="#000000" stroke-width="0.3"/><circle cx="31723.00" cy="14682.50" r="239.38" fill="#dcb428" stroke="#000000" stroke-width="0.3"/><circle cx="32383.00" cy="14682.50" r="239.38" fill="#dcb428" stroke="#000000" stroke-width="0.3"/><circle cx="19401.30" cy="3461.20" r="239.38" fill="#dcb428" stroke="#000000" stroke-width="0.3"/><circle cx="16801.30" cy="3461.20" r="239.38" fill="#dcb428" stroke="#000000" stroke-width="0.3"/><circle cx="19405.30" cy="6186.50" r="239.38" fill="#dcb428" stroke="#000000" stroke-width="0.3"/><circle cx="16805.30" cy="6186.50" r="239.38" fill="#dcb428" stroke="#000000" stroke-width="0.3"/><circle cx="15438.00" cy="9737.00" r="239.38" fill="#dcb428" stroke="#000000" stroke-width="0.3"/><circle cx="15438.00" cy="10652.00" r="239.38" fill="#dcb428" stroke="#000000" stroke-width="0.3"/><circle cx="15438.00" cy="13837.00" r="239.38" fill="#dcb428" stroke="#000000" stroke-width="0.3"/><circle cx="15438.00" cy="14737.00" r="239.38" fill="#dcb428" stroke="#000000" stroke-width="0.3"/><circle cx="38538.00" cy="11938.00" r="239.38" fill="#dcb428" stroke="#000000" stroke-width="0.3"/><circle cx="41731.00" cy="11938.00" r="239.38" fill="#dcb428" stroke="#000000" stroke-width="0.3"/><circle cx="36558.00" cy="12825.00" r="239.38" fill="#dcb428" stroke="#000000" stroke-width="0.3"/><circle cx="36558.00" cy="11875.00" r="239.38" fill="#dcb428" stroke="#000000" stroke-width="0.3"/><circle cx="36558.00" cy="10925.00" r="239.38" fill="#dcb428" stroke="#000000" stroke-width="0.3"/><circle cx="34283.00" cy="10925.00" r="239.38" fill="#dcb428" stroke="#000000" stroke-width="0.3"/><circle cx="34283.00" cy="12825.00" r="239.38" fill="#dcb428" stroke="#000000" stroke-width="0.3"/><circle cx="39738.00" cy="4638.00" r="239.38" fill="#dcb428" stroke="#000000" stroke-width="0.3"/><circle cx="39738.00" cy="6638.00" r="239.38" fill="#dcb428" stroke="#000000" stroke-width="0.3"/><circle cx="39738.00" cy="17388.00" r="239.38" fill="#dcb428" stroke="#000000" stroke-width="0.3"/><circle cx="39738.00" cy="19388.00" r="239.38" fill="#dcb428" stroke="#000000" stroke-width="0.3"/><circle cx="32369.00" cy="11875.00" r="239.38" fill="#dcb428" stroke="#000000" stroke-width="0.3"/><circle cx="30953.00" cy="11875.00" r="239.38" fill="#dcb428" stroke="#000000" stroke-width="0.3"/><circle cx="22625.50" cy="10849.50" r="239.38" fill="#dcb428" stroke="#000000" stroke-width="0.3"/><circle cx="22125.50" cy="10849.50" r="239.38" fill="#dcb428" stroke="#000000" stroke-width="0.3"/><circle cx="21625.50" cy="10849.50" r="239.38" fill="#dcb428" stroke="#000000" stroke-width="0.3"/><circle cx="21125.50" cy="10849.50" r="239.38" fill="#dcb428" stroke="#000000" stroke-width="0.3"/><circle cx="20438.00" cy="11537.00" r="239.38" fill="#dcb428" stroke="#000000" stroke-width="0.3"/><circle cx="20438.00" cy="12037.00" r="239.38" fill="#dcb428" stroke="#000000" stroke-width="0.3"/><circle cx="20438.00" cy="12537.00" r="239.38" fill="#dcb428" stroke="#000000" stroke-width="0.3"/><circle cx="20438.00" cy="13037.00" r="239.38" fill="#dcb428" stroke="#000000" stroke-width="0.3"/><circle cx="21125.50" cy="13724.50" r="239.38" fill="#dcb428" stroke="#000000" stroke-width="0.3"/><circle cx="21625.50" cy="13724.50" r="239.38" fill="#dcb428" stroke="#000000" stroke-width="0.3"/><circle cx="22125.50" cy="13724.50" r="239.38" fill="#dcb428" stroke="#000000" stroke-width="0.3"/><circle cx="22625.50" cy="13724.50" r="239.38" fill="#dcb428" stroke="#000000" stroke-width="0.3"/><circle cx="23313.00" cy="13037.00" r="239.38" fill="#dcb428" stroke="#000000" stroke-width="0.3"/><circle cx="23313.00" cy="12537.00" r="239.38" fill="#dcb428" stroke="#000000" stroke-width="0.3"/><circle cx="23313.00" cy="12037.00" r="239.38" fill="#dcb428" stroke="#000000" stroke-width="0.3"/><circle cx="23313.00" cy="11537.00" r="239.38" fill="#dcb428" stroke="#000000" stroke-width="0.3"/><circle cx="21875.50" cy="12287.00" r="239.38" fill="#dcb428" stroke="#000000" stroke-width="0.3"/></svg>