<svg xmlns="http://www.w3.org/2000/svg" viewBox="0 0 100.5 213.3" width="1200" height="2546"><rect width="100%" height="100%" fill="#141414"/><path d="M8.41,204.91L8.41,8.41L9.91,8.41L92.11,8.52L92.11,204.91L8.41,204.91Z" fill="#1e3c1e" stroke="#b4dcb4" stroke-width="0.5"/><path d="M47.24,66.81L47.24,28.47L64.11,11.61L68.05,11.61L74.60,18.16L74.60,67.91Z" fill="none" stroke="#3c78dc" stroke-width="1.77" stroke-linecap="round" stroke-linejoin="round"/><path d="M58.98,181.05L60.27,181.05L67.91,173.40Z" fill="none" stroke="#3c78dc" stroke-width="1.77" stroke-linecap="round" stroke-linejoin="round"/><path d="M67.91,173.40L76.06,173.40L79.86,169.60L79.86,157.77L67.28,145.18Z" fill="none" stroke="#3c78dc" stroke-width="1.77" stroke-linecap="round" stroke-linejoin="round"/><path d="M51.47,108.44L49.89,106.87L39.63,106.87Z" fill="none" stroke="#3c78dc" stroke-width="1.77" stroke-linecap="round" stroke-linejoin="round"/><path d="M16.41,59.91L11.33,54.83L11.33,36.99L14.37,33.95Z" fill="none" stroke="#3c78dc" stroke-width="1.77" stroke-linecap="round" stroke-linejoin="round"/><path d="M34.45,33.95L14.37,33.95Z" fill="none" stroke="#3c78dc" stroke-width="1.77" stroke-linecap="round" stroke-linejoin="round"/><path d="M14.37,13.87L34.45,13.87Z" fill="none" stroke="#3c78dc" stroke-width="1.77" stroke-linecap="round" stroke-linejoin="round"/><path d="M34.36,195.69L65.05,195.69L65.91,196.54Z" fill="none" stroke="#3c78dc" stroke-width="1.77" stroke-linecap="round" stroke-linejoin="round"/><path d="M17.91,101.08L14.24,101.08Z" fill="none" stroke="#3c78dc" stroke-width="1.77" stroke-linecap="round" stroke-linejoin="round"/><path d="M17.91,68.41L12.54,73.77L12.54,99.38L14.24,101.08Z" fill="none" stroke="#3c78dc" stroke-width="1.77" stroke-linecap="round" stroke-linejoin="round"/><path d="M14.24,101.08L14.24,150.36L19.41,155.52Z" fill="none" stroke="#3c78dc" stroke-width="1.77" stroke-linecap="round" stroke-linejoin="round"/><path d="M17.91,84.75L25.27,92.11L25.27,126.43L19.41,132.29Z" fill="none" stroke="#3c78dc" stroke-width="1.77" stroke-linecap="round" stroke-linejoin="round"/><path d="M15.46,187.81L34.36,168.91L34.36,168.13Z" fill="none" stroke="#3c78dc" stroke-width="1.77" stroke-linecap="round" stroke-linejoin="round"/><path d="M33.41,44.91L38.38,49.88L38.38,72.48L34.00,76.87L17.91,76.87Z" fill="none" stroke="#3c78dc" stroke-width="1.77" stroke-linecap="round" stroke-linejoin="round"/><path d="M33.41,150.41L27.96,144.96L27.96,115.85L33.41,110.41Z" fill="none" stroke="#3c78dc" stroke-width="1.77" stroke-linecap="round" stroke-linejoin="round"/><path d="M16.41,44.91L28.03,56.53L28.03,73.38Z" fill="none" stroke="#3c78dc" stroke-width="1.77" stroke-linecap="round" stroke-linejoin="round"/><path d="M73.81,166.27L71.06,163.52L71.06,163.52L64.84,163.52L49.67,148.35L49.67,145.68L68.44,126.91L71.59,126.91L71.59,126.91Z" fill="none" stroke="#3c78dc" stroke-width="1.77" stroke-linecap="round" stroke-linejoin="round"/><path d="M55.39,111.12L55.39,77.76Z" fill="none" stroke="#3c78dc" stroke-width="1.77" stroke-linecap="round" stroke-linejoin="round"/><path d="M53.05,114.24L55.39,111.90L55.39,111.12Z" fill="none" stroke="#3c78dc" stroke-width="1.77" stroke-linecap="round" stroke-linejoin="round"/><path d="M55.39,111.12L81.63,111.12L85.15,114.64Z" fill="none" stroke="#3c78dc" stroke-width="1.77" stroke-linecap="round" stroke-linejoin="round"/><path d="M52.08,89.14L49.91,86.97L49.91,69.15L53.08,65.98L66.27,65.98Z" fill="none" stroke="#3c78dc" stroke-width="1.77" stroke-linecap="round" stroke-linejoin="round"/><path d="M46.49,117.56L68.77,117.56L71.38,114.95Z" fill="none" stroke="#3c78dc" stroke-width="1.77" stroke-linecap="round" stroke-linejoin="round"/><path d="M32.26,116.60L45.53,116.60L46.49,117.56Z" fill="none" stroke="#3c78dc" stroke-width="1.77" stroke-linecap="round" stroke-linejoin="round"/><path d="M46.49,117.56L46.49,149.41L66.66,169.59L75.81,169.59L77.13,168.26L77.13,164.54L72.09,159.51L65.78,159.51Z" fill="none" stroke="#3c78dc" stroke-width="1.77" stroke-linecap="round" stroke-linejoin="round"/><path d="M68.64,44.24L65.91,41.50L65.91,17.41Z" fill="none" stroke="#3c78dc" stroke-width="1.77" stroke-linecap="round" stroke-linejoin="round"/><path d="M53.42,147.27L57.66,147.27L88.79,116.14L88.79,88.12L69.59,68.91L69.59,45.18L68.64,44.24Z" fill="none" stroke="#3c78dc" stroke-width="1.77" stroke-linecap="round" stroke-linejoin="round"/><path d="M78.34,100.91L83.48,95.77L83.48,89.36L82.57,88.44L74.64,88.44L70.47,92.62L70.47,92.91Z" fill="none" stroke="#c83c3c" stroke-width="1.77" stroke-linecap="round" stroke-linejoin="round"/><path d="M67.91,133.41L67.91,129.05Z" fill="none" stroke="#c83c3c" stroke-width="1.77" stroke-linecap="round" stroke-linejoin="round"/><path d="M70.91,86.92L68.28,86.92L65.54,89.66L65.54,126.68L67.91,129.05Z" fill="none" stroke="#c83c3c" stroke-width="1.77" stroke-linecap="round" stroke-linejoin="round"/><path d="M70.91,84.66L70.91,86.92Z" fill="none" stroke="#c83c3c" stroke-width="1.77" stroke-linecap="round" stroke-linejoin="round"/><path d="M70.91,84.66L70.91,82.41Z" fill="none" stroke="#c83c3c" stroke-width="1.77" stroke-linecap="round" stroke-linejoin="round"/><path d="M70.91,82.41L74.60,78.71L74.60,67.91L74.60,67.91Z" fill="none" stroke="#c83c3c" stroke-width="1.77" stroke-linecap="round" stroke-linejoin="round"/><path d="M47.24,66.81L48.13,67.70L48.14,67.70Z" fill="none" stroke="#c83c3c" stroke-width="1.77" stroke-linecap="round" stroke-linejoin="round"/><path d="M48.14,72.91L48.14,67.70Z" fill="none" stroke="#c83c3c" stroke-width="1.77" stroke-linecap="round" stroke-linejoin="round"/><path d="M52.78,180.41L58.34,180.41L58.98,181.05Z" fill="none" stroke="#c83c3c" stroke-width="1.77" stroke-linecap="round" stroke-linejoin="round"/><path d="M78.78,82.41L82.81,82.41Z" fill="none" stroke="#c83c3c" stroke-width="1.77" stroke-linecap="round" stroke-linejoin="round"/><path d="M67.91,173.40L67.91,167.39L88.86,146.44L88.86,88.46L82.81,82.41Z" fill="none" stroke="#c83c3c" stroke-width="1.77" stroke-linecap="round" stroke-linejoin="round"/><path d="M70.94,141.41L67.28,145.06L67.28,145.18Z" fill="none" stroke="#c83c3c" stroke-width="1.77" stroke-linecap="round" stroke-linejoin="round"/><path d="M51.47,108.44L57.00,102.91L58.23,102.91Z" fill="none" stroke="#c83c3c" stroke-width="1.77" stroke-linecap="round" stroke-linejoin="round"/><path d="M42.41,121.91L39.63,119.13L39.63,106.87Z" fill="none" stroke="#c83c3c" stroke-width="1.77" stroke-linecap="round" stroke-linejoin="round"/><path d="M46.58,121.91L42.41,121.91Z" fill="none" stroke="#c83c3c" stroke-width="1.77" stroke-linecap="round" stroke-linejoin="round"/><path d="M33.41,70.41L33.41,59.91Z" fill="none" stroke="#c83c3c" stroke-width="1.77" stroke-linecap="round" stroke-linejoin="round"/><path d="M33.41,95.41L33.41,85.41Z" fill="none" stroke="#c83c3c" stroke-width="1.77" stroke-linecap="round" stroke-linejoin="round"/><path d="M17.91,92.62L18.74,92.62L25.22,99.09L25.22,104.05L21.44,107.83L21.44,124.80L32.05,135.41L33.41,135.41Z" fill="none" stroke="#c83c3c" stroke-width="1.77" stroke-linecap="round" stroke-linejoin="round"/><path d="M17.91,68.41L16.41,66.91L16.41,59.91Z" fill="none" stroke="#c83c3c" stroke-width="1.77" stroke-linecap="round" stroke-linejoin="round"/><path d="M34.45,33.95L34.45,13.87Z" fill="none" stroke="#c83c3c" stroke-width="1.77" stroke-linecap="round" stroke-linejoin="round"/><path d="M34.45,33.95L48.99,33.95L50.87,35.83Z" fill="none" stroke="#c83c3c" stroke-width="1.77" stroke-linecap="round" stroke-linejoin="round"/><path d="M19.41,155.52L19.41,180.74L34.36,195.69Z" fill="none" stroke="#c83c3c" stroke-width="1.77" stroke-linecap="round" stroke-linejoin="round"/><path d="M55.43,35.83L53.15,35.83Z" fill="none" stroke="#c83c3c" stroke-width="1.77" stroke-linecap="round" stroke-linejoin="round"/><path d="M53.15,35.83L50.87,35.83Z" fill="none" stroke="#c83c3c" stroke-width="1.77" stroke-linecap="round" stroke-linejoin="round"/><path d="M53.15,35.83L50.87,33.55L50.87,25.99Z" fill="none" stroke="#c83c3c" stroke-width="1.77" stroke-linecap="round" stroke-linejoin="round"/><path d="M52.78,185.41L54.77,185.41L65.91,196.54Z" fill="none" stroke="#c83c3c" stroke-width="1.77" stroke-linecap="round" stroke-linejoin="round"/><path d="M83.31,62.96L83.31,66.34L81.95,67.70Z" fill="none" stroke="#c83c3c" stroke-width="1.77" stroke-linecap="round" stroke-linejoin="round"/><path d="M76.66,62.96L83.31,62.96Z" fill="none" stroke="#c83c3c" stroke-width="1.77" stroke-linecap="round" stroke-linejoin="round"/><path d="M76.87,144.91L75.84,145.94L75.84,148.91Z" fill="none" stroke="#c83c3c" stroke-width="1.77" stroke-linecap="round" stroke-linejoin="round"/><path d="M75.84,148.91L75.84,151.77Z" fill="none" stroke="#c83c3c" stroke-width="1.77" stroke-linecap="round" stroke-linejoin="round"/><path d="M60.05,147.91L60.05,144.90L59.91,144.76Z" fill="none" stroke="#c83c3c" stroke-width="1.77" stroke-linecap="round" stroke-linejoin="round"/><path d="M59.91,140.41L59.91,132.91Z" fill="none" stroke="#c83c3c" stroke-width="1.77" stroke-linecap="round" stroke-linejoin="round"/><path d="M59.91,140.41L59.91,144.76Z" fill="none" stroke="#c83c3c" stroke-width="1.77" stroke-linecap="round" stroke-linejoin="round"/><path d="M75.84,151.77L76.05,151.98L76.05,153.91Z" fill="none" stroke="#c83c3c" stroke-width="1.77" stroke-linecap="round" stroke-linejoin="round"/><path d="M60.68,72.91L60.68,67.70Z" fill="none" stroke="#c83c3c" stroke-width="1.77" stroke-linecap="round" stroke-linejoin="round"/><path d="M76.87,143.16L76.87,144.91Z" fill="none" stroke="#c83c3c" stroke-width="1.77" stroke-linecap="round" stroke-linejoin="round"/><path d="M76.87,143.16L76.87,141.41Z" fill="none" stroke="#c83c3c" stroke-width="1.77" stroke-linecap="round" stroke-linejoin="round"/><path d="M55.43,25.99L53.15,25.99Z" fill="none" stroke="#c83c3c" stroke-width="1.77" stroke-linecap="round" stroke-linejoin="round"/><path d="M53.15,25.99L50.87,25.99Z" fill="none" stroke="#c83c3c" stroke-width="1.77" stroke-linecap="round" stroke-linejoin="round"/><path d="M53.15,25.99L53.15,22.06L63.29,11.92L68.36,11.92L84.08,27.65L84.08,62.19L83.31,62.96Z" fill="none" stroke="#c83c3c" stroke-width="1.77" stroke-linecap="round" stroke-linejoin="round"/><path d="M60.05,147.91L60.05,150.55L59.55,151.05Z" fill="none" stroke="#c83c3c" stroke-width="1.77" stroke-linecap="round" stroke-linejoin="round"/><path d="M59.55,155.41L59.55,151.05Z" fill="none" stroke="#c83c3c" stroke-width="1.77" stroke-linecap="round" stroke-linejoin="round"/><path d="M59.55,155.41L59.55,173.15L58.19,174.50Z" fill="none" stroke="#c83c3c" stroke-width="1.77" stroke-linecap="round" stroke-linejoin="round"/><path d="M58.19,174.50L53.69,174.50L52.78,175.41Z" fill="none" stroke="#c83c3c" stroke-width="1.77" stroke-linecap="round" stroke-linejoin="round"/><path d="M58.19,174.50L64.62,180.93L64.62,195.25L65.91,196.54Z" fill="none" stroke="#c83c3c" stroke-width="1.77" stroke-linecap="round" stroke-linejoin="round"/><path d="M76.87,137.84L76.87,141.41Z" fill="none" stroke="#c83c3c" stroke-width="1.77" stroke-linecap="round" stroke-linejoin="round"/><path d="M76.87,137.84L67.74,137.84L65.17,140.41Z" fill="none" stroke="#c83c3c" stroke-width="1.77" stroke-linecap="round" stroke-linejoin="round"/><path d="M59.91,140.41L65.17,140.41Z" fill="none" stroke="#c83c3c" stroke-width="1.77" stroke-linecap="round" stroke-linejoin="round"/><path d="M81.95,72.91L81.95,67.70Z" fill="none" stroke="#c83c3c" stroke-width="1.77" stroke-linecap="round" stroke-linejoin="round"/><path d="M58.23,127.06L58.41,127.06L59.91,128.55Z" fill="none" stroke="#c83c3c" stroke-width="1.77" stroke-linecap="round" stroke-linejoin="round"/><path d="M59.91,132.91L59.91,128.55Z" fill="none" stroke="#c83c3c" stroke-width="1.77" stroke-linecap="round" stroke-linejoin="round"/><path d="M58.23,121.91L58.23,127.06Z" fill="none" stroke="#c83c3c" stroke-width="1.77" stroke-linecap="round" stroke-linejoin="round"/><path d="M78.34,113.36L82.06,117.09L82.06,124.88L76.87,130.07L76.87,137.84Z" fill="none" stroke="#c83c3c" stroke-width="1.77" stroke-linecap="round" stroke-linejoin="round"/><path d="M76.66,62.96L70.00,62.96Z" fill="none" stroke="#c83c3c" stroke-width="1.77" stroke-linecap="round" stroke-linejoin="round"/><path d="M78.34,108.91L78.34,113.36Z" fill="none" stroke="#c83c3c" stroke-width="1.77" stroke-linecap="round" stroke-linejoin="round"/><path d="M70.00,62.96L69.70,62.66L64.90,62.66L60.68,66.88L60.68,67.70Z" fill="none" stroke="#c83c3c" stroke-width="1.77" stroke-linecap="round" stroke-linejoin="round"/><path d="M73.38,25.99L68.82,25.99Z" fill="none" stroke="#c83c3c" stroke-width="1.77" stroke-linecap="round" stroke-linejoin="round"/><path d="M24.41,23.91L24.91,24.41L24.91,50.04Z" fill="none" stroke="#c83c3c" stroke-width="1.77" stroke-linecap="round" stroke-linejoin="round"/><path d="M24.91,50.04L24.91,71.80L24.71,72.00L24.71,77.94L17.91,84.75Z" fill="none" stroke="#c83c3c" stroke-width="1.77" stroke-linecap="round" stroke-linejoin="round"/><path d="M68.82,25.99L68.82,29.56L58.73,39.65L48.73,39.65L38.34,50.04L24.91,50.04Z" fill="none" stroke="#c83c3c" stroke-width="1.77" stroke-linecap="round" stroke-linejoin="round"/><path d="M25.80,121.34L30.16,121.34Z" fill="none" stroke="#c83c3c" stroke-width="1.77" stroke-linecap="round" stroke-linejoin="round"/><path d="M38.48,140.47L20.57,140.47L13.01,132.90L13.01,117.41Z" fill="none" stroke="#c83c3c" stroke-width="1.77" stroke-linecap="round" stroke-linejoin="round"/><path d="M38.48,140.47L38.48,164.00L34.36,168.13Z" fill="none" stroke="#c83c3c" stroke-width="1.77" stroke-linecap="round" stroke-linejoin="round"/><path d="M30.16,121.34L30.16,121.65L38.48,129.96L38.48,140.47Z" fill="none" stroke="#c83c3c" stroke-width="1.77" stroke-linecap="round" stroke-linejoin="round"/><path d="M28.03,73.38L28.03,105.03L33.41,110.41Z" fill="none" stroke="#c83c3c" stroke-width="1.77" stroke-linecap="round" stroke-linejoin="round"/><path d="M73.38,35.83L68.82,35.83Z" fill="none" stroke="#c83c3c" stroke-width="1.77" stroke-linecap="round" stroke-linejoin="round"/><path d="M68.82,35.83L59.52,45.13L47.96,45.13L41.97,51.12L41.97,92.97L42.41,93.41Z" fill="none" stroke="#c83c3c" stroke-width="1.77" stroke-linecap="round" stroke-linejoin="round"/><path d="M46.58,93.41L42.41,93.41Z" fill="none" stroke="#c83c3c" stroke-width="1.77" stroke-linecap="round" stroke-linejoin="round"/><path d="M73.91,185.41L76.65,185.41L79.38,182.67L79.38,168.48L77.17,166.27L73.81,166.27Z" fill="none" stroke="#c83c3c" stroke-width="1.77" stroke-linecap="round" stroke-linejoin="round"/><path d="M71.59,126.91L70.60,125.92L69.97,125.92Z" fill="none" stroke="#c83c3c" stroke-width="1.77" stroke-linecap="round" stroke-linejoin="round"/><path d="M69.97,121.41L69.97,125.92Z" fill="none" stroke="#c83c3c" stroke-width="1.77" stroke-linecap="round" stroke-linejoin="round"/><path d="M81.29,133.41L85.15,129.55L85.15,114.64Z" fill="none" stroke="#c83c3c" stroke-width="1.77" stroke-linecap="round" stroke-linejoin="round"/><path d="M60.68,82.41L55.95,82.41Z" fill="none" stroke="#c83c3c" stroke-width="1.77" stroke-linecap="round" stroke-linejoin="round"/><path d="M53.05,114.24L52.60,114.24L50.76,112.41Z" fill="none" stroke="#c83c3c" stroke-width="1.77" stroke-linecap="round" stroke-linejoin="round"/><path d="M46.58,112.41L50.76,112.41Z" fill="none" stroke="#c83c3c" stroke-width="1.77" stroke-linecap="round" stroke-linejoin="round"/><path d="M55.95,82.41L55.39,81.85L55.39,77.76Z" fill="none" stroke="#c83c3c" stroke-width="1.77" stroke-linecap="round" stroke-linejoin="round"/><path d="M58.23,93.41L54.05,93.41Z" fill="none" stroke="#c83c3c" stroke-width="1.77" stroke-linecap="round" stroke-linejoin="round"/><path d="M66.27,65.98L68.00,67.70L69.41,67.70Z" fill="none" stroke="#c83c3c" stroke-width="1.77" stroke-linecap="round" stroke-linejoin="round"/><path d="M69.41,72.91L69.41,67.70Z" fill="none" stroke="#c83c3c" stroke-width="1.77" stroke-linecap="round" stroke-linejoin="round"/><path d="M48.14,87.61L50.55,87.61L52.08,89.14Z" fill="none" stroke="#c83c3c" stroke-width="1.77" stroke-linecap="round" stroke-linejoin="round"/><path d="M54.05,93.41L54.05,91.11L52.08,89.14Z" fill="none" stroke="#c83c3c" stroke-width="1.77" stroke-linecap="round" stroke-linejoin="round"/><path d="M48.14,82.41L48.14,87.61Z" fill="none" stroke="#c83c3c" stroke-width="1.77" stroke-linecap="round" stroke-linejoin="round"/><path d="M76.66,53.91L70.00,53.91Z" fill="none" stroke="#c83c3c" stroke-width="1.77" stroke-linecap="round" stroke-linejoin="round"/><path d="M70.00,53.91L54.16,53.91Z" fill="none" stroke="#c83c3c" stroke-width="1.77" stroke-linecap="round" stroke-linejoin="round"/><path d="M46.27,153.23L46.27,151.05Z" fill="none" stroke="#c83c3c" stroke-width="1.77" stroke-linecap="round" stroke-linejoin="round"/><path d="M46.27,153.23L46.27,155.41Z" fill="none" stroke="#c83c3c" stroke-width="1.77" stroke-linecap="round" stroke-linejoin="round"/><path d="M46.27,155.41L46.27,186.23L62.19,202.15L67.87,202.15L71.41,198.61L71.41,190.14L68.00,186.74L68.00,184.43L72.03,180.41L73.91,180.41Z" fill="none" stroke="#c83c3c" stroke-width="1.77" stroke-linecap="round" stroke-linejoin="round"/><path d="M46.27,151.05L46.77,150.55L46.77,147.91Z" fill="none" stroke="#c83c3c" stroke-width="1.77" stroke-linecap="round" stroke-linejoin="round"/><path d="M70.47,108.91L70.47,100.91Z" fill="none" stroke="#c83c3c" stroke-width="1.77" stroke-linecap="round" stroke-linejoin="round"/><path d="M71.76,151.04L71.55,150.83L71.55,148.91Z" fill="none" stroke="#c83c3c" stroke-width="1.77" stroke-linecap="round" stroke-linejoin="round"/><path d="M71.76,152.47L71.76,151.04Z" fill="none" stroke="#c83c3c" stroke-width="1.77" stroke-linecap="round" stroke-linejoin="round"/><path d="M32.26,116.60L29.13,113.47L25.80,113.47Z" fill="none" stroke="#c83c3c" stroke-width="1.77" stroke-linecap="round" stroke-linejoin="round"/><path d="M77.84,121.41L71.38,114.95Z" fill="none" stroke="#c83c3c" stroke-width="1.77" stroke-linecap="round" stroke-linejoin="round"/><path d="M71.38,114.95L70.47,114.03L70.47,108.91Z" fill="none" stroke="#c83c3c" stroke-width="1.77" stroke-linecap="round" stroke-linejoin="round"/><path d="M71.76,153.91L71.76,152.47Z" fill="none" stroke="#c83c3c" stroke-width="1.77" stroke-linecap="round" stroke-linejoin="round"/><path d="M65.78,159.51L65.78,156.53L68.40,153.91Z" fill="none" stroke="#c83c3c" stroke-width="1.77" stroke-linecap="round" stroke-linejoin="round"/><path d="M71.76,153.91L68.40,153.91Z" fill="none" stroke="#c83c3c" stroke-width="1.77" stroke-linecap="round" stroke-linejoin="round"/><path d="M46.63,132.91L46.63,140.41Z" fill="none" stroke="#c83c3c" stroke-width="1.77" stroke-linecap="round" stroke-linejoin="round"/><path d="M51.89,140.41L53.42,141.94L53.42,147.27Z" fill="none" stroke="#c83c3c" stroke-width="1.77" stroke-linecap="round" stroke-linejoin="round"/><path d="M46.63,140.41L51.89,140.41Z" fill="none" stroke="#c83c3c" stroke-width="1.77" stroke-linecap="round" stroke-linejoin="round"/><path d="M76.66,44.85L69.26,44.85L68.64,44.24Z" fill="none" stroke="#c83c3c" stroke-width="1.77" stroke-linecap="round" stroke-linejoin="round"/><circle cx="68.64" cy="44.24" r="1.50" fill="#ffffff" stroke="#888888" stroke-width="0.5"/><circle cx="53.42" cy="147.27" r="1.50" fill="#ffffff" stroke="#888888" stroke-width="0.5"/><circle cx="65.78" cy="159.51" r="1.50" fill="#ffffff" stroke="#888888" stroke-width="0.5"/><circle cx="32.26" cy="116.60" r="1.50" fill="#ffffff" stroke="#888888" stroke-width="0.5"/><circle cx="71.38" cy="114.95" r="1.50" fill="#ffffff" stroke="#888888" stroke-width="0.5"/><circle cx="66.27" cy="65.98" r="1.50" fill="#ffffff" stroke="#888888" stroke-width="0.5"/><circle cx="52.08" cy="89.14" r="1.50" fill="#ffffff" stroke="#888888" stroke-width="0.5"/><circle cx="53.05" cy="114.24" r="1.50" fill="#ffffff" stroke="#888888" stroke-width="0.5"/><circle cx="55.39" cy="77.76" r="1.50" fill="#ffffff" stroke="#888888" stroke-width="0.5"/><circle cx="85.15" cy="114.64" r="1.50" fill="#ffffff" stroke="#888888" stroke-width="0.5"/><circle cx="71.59" cy="126.91" r="1.50" fill="#ffffff" stroke="#888888" stroke-width="0.5"/><circle cx="73.81" cy="166.27" r="1.50" fill="#ffffff" stroke="#888888" stroke-width="0.5"/><circle cx="28.03" cy="73.38" r="1.50" fill="#ffffff" stroke="#888888" stroke-width="0.5"/><circle cx="51.47" cy="108.44" r="1.50" fill="#ffffff" stroke="#888888" stroke-width="0.5"/><circle cx="39.63" cy="106.87" r="1.50" fill="#ffffff" stroke="#888888" stroke-width="0.5"/><circle cx="67.28" cy="145.18" r="1.50" fill="#ffffff" stroke="#888888" stroke-width="0.5"/><circle cx="67.91" cy="173.40" r="1.50" fill="#ffffff" stroke="#888888" stroke-width="0.5"/><circle cx="58.98" cy="181.05" r="1.50" fill="#ffffff" stroke="#888888" stroke-width="0.5"/><circle cx="47.24" cy="66.81" r="1.50" fill="#ffffff" stroke="#888888" stroke-width="0.5"/><circle cx="74.60" cy="67.91" r="1.50" fill="#ffffff" stroke="#888888" stroke-width="0.5"/><circle cx="65.91" cy="196.54" r="1.00" fill="#dcb428" stroke="#000000" stroke-width="0.3"/><circle cx="65.91" cy="17.41" r="1.00" fill="#dcb428" stroke="#000000" stroke-width="0.3"/><circle cx="46.63" cy="132.91" r="1.00" fill="#dcb428" stroke="#000000" stroke-width="0.3"/><circle cx="59.91" cy="132.91" r="1.00" fill="#dcb428" stroke="#000000" stroke-width="0.3"/><circle cx="75.84" cy="148.91" r="1.00" fill="#dcb428" stroke="#000000" stroke-width="0.3"/><circle cx="71.55" cy="148.91" r="1.00" fill="#dcb428" stroke="#000000" stroke-width="0.3"/><circle cx="60.68" cy="72.91" r="1.00" fill="#dcb428" stroke="#000000" stroke-width="0.3"/><circle cx="48.14" cy="72.91" r="1.00" fill="#dcb428" stroke="#000000" stroke-width="0.3"/><circle cx="46.63" cy="140.41" r="1.00" fill="#dcb428" stroke="#000000" stroke-width="0.3"/><circle cx="59.91" cy="140.41" r="1.00" fill="#dcb428" stroke="#000000" stroke-width="0.3"/><circle cx="78.34" cy="92.91" r="1.00" fill="#dcb428" stroke="#000000" stroke-width="0.3"/><circle cx="70.47" cy="92.91" r="1.00" fill="#dcb428" stroke="#000000" stroke-width="0.3"/><circle cx="46.77" cy="147.91" r="1.00" fill="#dcb428" stroke="#000000" stroke-width="0.3"/><circle cx="60.05" cy="147.91" r="1.00" fill="#dcb428" stroke="#000000" stroke-width="0.3"/><circle cx="78.34" cy="100.91" r="1.00" fill="#dcb428" stroke="#000000" stroke-width="0.3"/><circle cx="70.47" cy="100.91" r="1.00" fill="#dcb428" stroke="#000000" stroke-width="0.3"/><circle cx="76.05" cy="153.91" r="1.00" fill="#dcb428" stroke="#000000" stroke-width="0.3"/><circle cx="71.76" cy="153.91" r="1.00" fill="#dcb428" stroke="#000000" stroke-width="0.3"/><circle cx="78.34" cy="108.91" r="1.00" fill="#dcb428" stroke="#000000" stroke-width="0.3"/><circle cx="70.47" cy="108.91" r="1.00" fill="#dcb428" stroke="#000000" stroke-width="0.3"/><circle cx="81.95" cy="72.91" r="1.00" fill="#dcb428" stroke="#000000" stroke-width="0.3"/><circle cx="69.41" cy="72.91" r="1.00" fill="#dcb428" stroke="#000000" stroke-width="0.3"/><circle cx="46.27" cy="155.41" r="1.00" fill="#dcb428" stroke="#000000" stroke-width="0.3"/><circle cx="59.55" cy="155.41" r="1.00" fill="#dcb428" stroke="#000000" stroke-width="0.3"/><circle cx="60.68" cy="82.41" r="1.00" fill="#dcb428" stroke="#000000" stroke-width="0.3"/><circle cx="48.14" cy="82.41" r="1.00" fill="#dcb428" stroke="#000000" stroke-width="0.3"/><circle cx="77.84" cy="121.41" r="1.00" fill="#dcb428" stroke="#000000" stroke-width="0.3"/><circle cx="69.97" cy="121.41" r="1.00" fill="#dcb428" stroke="#000000" stroke-width="0.3"/><circle cx="76.87" cy="141.41" r="1.00" fill="#dcb428" stroke="#000000" stroke-width="0.3"/><circle cx="70.94" cy="141.41" r="1.00" fill="#dcb428" stroke="#000000" stroke-width="0.3"/><circle cx="58.23" cy="93.41" r="1.00" fill="#dcb428" stroke="#000000" stroke-width="0.3"/><circle cx="46.58" cy="93.41" r="1.00" fill="#dcb428" stroke="#000000" stroke-width="0.3"/><circle cx="58.23" cy="112.41" r="1.00" fill="#dcb428" stroke="#000000" stroke-width="0.3"/><circle cx="46.58" cy="112.41" r="1.00" fill="#dcb428" stroke="#000000" stroke-width="0.3"/><circle cx="58.23" cy="102.91" r="1.00" fill="#dcb428" stroke="#000000" stroke-width="0.3"/><circle cx="46.58" cy="102.91" r="1.00" fill="#dcb428" stroke="#000000" stroke-width="0.3"/><circle cx="58.23" cy="121.91" r="1.00" fill="#dcb428" stroke="#000000" stroke-width="0.3"/><circle cx="46.58" cy="121.91" r="1.00" fill="#dcb428" stroke="#000000" stroke-width="0.3"/><circle cx="81.29" cy="133.41" r="1.00" fill="#dcb428" stroke="#000000" stroke-width="0.3"/><circle cx="67.91" cy="133.41" r="1.00" fill="#dcb428" stroke="#000000" stroke-width="0.3"/><circle cx="78.78" cy="82.41" r="1.00" fill="#dcb428" stroke="#000000" stroke-width="0.3"/><circle cx="70.91" cy="82.41" r="1.00" fill="#dcb428" stroke="#000000" stroke-width="0.3"/><circle cx="76.66" cy="62.96" r="1.00" fill="#dcb428" stroke="#000000" stroke-width="0.3"/><circle cx="76.66" cy="53.91" r="1.00" fill="#dcb428" stroke="#000000" stroke-width="0.3"/><circle cx="76.66" cy="44.85" r="1.00" fill="#dcb428" stroke="#000000" stroke-width="0.3"/><circle cx="54.16" cy="53.91" r="1.00" fill="#dcb428" stroke="#000000" stroke-width="0.3"/><circle cx="52.78" cy="170.41" r="1.00" fill="#dcb428" stroke="#000000" stroke-width="0.3"/><circle cx="52.78" cy="175.41" r="1.00" fill="#dcb428" stroke="#000000" stroke-width="0.3"/><circle cx="52.78" cy="180.41" r="1.00" fill="#dcb428" stroke="#000000" stroke-width="0.3"/><circle cx="52.78" cy="185.41" r="1.00" fill="#dcb428" stroke="#000000" stroke-width="0.3"/><circle cx="73.91" cy="170.41" r="1.00" fill="#dcb428" stroke="#000000" stroke-width="0.3"/><circle cx="73.91" cy="175.41" r="1.00" fill="#dcb428" stroke="#000000" stroke-width="0.3"/><circle cx="73.91" cy="180.41" r="1.00" fill="#dcb428" stroke="#000000" stroke-width="0.3"/><circle cx="73.91" cy="185.41" r="1.00" fill="#dcb428" stroke="#000000" stroke-width="0.3"/><circle cx="73.38" cy="35.83" r="1.00" fill="#dcb428" stroke="#000000" stroke-width="0.3"/><circle cx="73.38" cy="25.99" r="1.00" fill="#dcb428" stroke="#000000" stroke-width="0.3"/><circle cx="55.43" cy="25.99" r="1.00" fill="#dcb428" stroke="#000000" stroke-width="0.3"/><circle cx="55.43" cy="35.83" r="1.00" fill="#dcb428" stroke="#000000" stroke-width="0.3"/><circle cx="19.41" cy="132.29" r="1.00" fill="#dcb428" stroke="#000000" stroke-width="0.3"/><circle cx="19.41" cy="155.52" r="1.00" fill="#dcb428" stroke="#000000" stroke-width="0.3"/><circle cx="34.36" cy="195.69" r="1.00" fill="#dcb428" stroke="#000000" stroke-width="0.3"/><circle cx="34.36" cy="168.13" r="1.00" fill="#dcb428" stroke="#000000" stroke-width="0.3"/><circle cx="15.46" cy="187.81" r="1.00" fill="#dcb428" stroke="#000000" stroke-width="0.3"/><circle cx="24.41" cy="23.91" r="1.00" fill="#dcb428" stroke="#000000" stroke-width="0.3"/><circle cx="34.45" cy="13.87" r="1.00" fill="#dcb428" stroke="#000000" stroke-width="0.3"/><circle cx="14.37" cy="13.87" r="1.00" fill="#dcb428" stroke="#000000" stroke-width="0.3"/><circle cx="14.37" cy="33.95" r="1.00" fill="#dcb428" stroke="#000000" stroke-width="0.3"/><circle cx="34.45" cy="33.95" r="1.00" fill="#dcb428" stroke="#000000" stroke-width="0.3"/><circle cx="13.01" cy="117.41" r="1.00" fill="#dcb428" stroke="#000000" stroke-width="0.3"/><circle cx="25.80" cy="113.47" r="1.00" fill="#dcb428" stroke="#000000" stroke-width="0.3"/><circle cx="25.80" cy="121.34" r="1.00" fill="#dcb428" stroke="#000000" stroke-width="0.3"/><circle cx="33.41" cy="44.91" r="1.00" fill="#dcb428" stroke="#000000" stroke-width="0.3"/><circle cx="33.41" cy="59.91" r="1.00" fill="#dcb428" stroke="#000000" stroke-width="0.3"/><circle cx="33.41" cy="70.41" r="1.00" fill="#dcb428" stroke="#000000" stroke-width="0.3"/><circle cx="33.41" cy="85.41" r="1.00" fill="#dcb428" stroke="#000000" stroke-width="0.3"/><circle cx="33.41" cy="95.41" r="1.00" fill="#dcb428" stroke="#000000" stroke-width="0.3"/><circle cx="33.41" cy="110.41" r="1.00" fill="#dcb428" stroke="#000000" stroke-width="0.3"/><circle cx="33.41" cy="135.41" r="1.00" fill="#dcb428" stroke="#000000" stroke-width="0.3"/><circle cx="33.41" cy="150.41" r="1.00" fill="#dcb428" stroke="#000000" stroke-width="0.3"/><circle cx="16.41" cy="44.91" r="1.00" fill="#dcb428" stroke="#000000" stroke-width="0.3"/><circle cx="16.41" cy="59.91" r="1.00" fill="#dcb428" stroke="#000000" stroke-width="0.3"/><circle cx="17.91" cy="76.87" r="1.00" fill="#dcb428" stroke="#000000" stroke-width="0.3"/><circle cx="17.91" cy="92.62" r="1.00" fill="#dcb428" stroke="#000000" stroke-width="0.3"/><circle cx="17.91" cy="84.75" r="1.00" fill="#dcb428" stroke="#000000" stroke-width="0.3"/><circle cx="17.91" cy="101.08" r="1.00" fill="#dcb428" stroke="#000000" stroke-width="0.3"/><circle cx="17.91" cy="68.41" r="1.00" fill="#dcb428" stroke="#000000" stroke-width="0.3"/><circle cx="68.64" cy="44.24" r="1.00" fill="#dcb428" stroke="#000000" stroke-width="0.3"/><circle cx="53.42" cy="147.27" r="1.00" fill="#dcb428" stroke="#000000" stroke-width="0.3"/><circle cx="65.78" cy="159.51" r="1.00" fill="#dcb428" stroke="#000000" stroke-width="0.3"/><circle cx="32.26" cy="116.60" r="1.00" fill="#dcb428" stroke="#000000" stroke-width="0.3"/><circle cx="71.38" cy="114.95" r="1.00" fill="#dcb428" stroke="#000000" stroke-width="0.3"/><circle cx="66.27" cy="65.98" r="1.00" fill="#dcb428" stroke="#000000" stroke-width="0.3"/><circle cx="52.08" cy="89.14" r="1.00" fill="#dcb428" stroke="#000000" stroke-width="0.3"/><circle cx="53.05" cy="114.24" r="1.00" fill="#dcb428" stroke="#000000" stroke-width="0.3"/><circle cx="55.39" cy="77.76" r="1.00" fill="#dcb428" stroke="#000000" stroke-width="0.3"/><circle cx="85.15" cy="114.64" r="1.00" fill="#dcb428" stroke="#000000" stroke-width="0.3"/><circle cx="71.59" cy="126.91" r="1.00" fill="#dcb428" stroke="#000000" stroke-width="0.3"/><circle cx="73.81" cy="166.27" r="1.00" fill="#dcb428" stroke="#000000" stroke-width="0.3"/><circle cx="28.03" cy="73.38" r="1.00" fill="#dcb428" stroke="#000000" stroke-width="0.3"/><circle cx="51.47" cy="108.44" r="1.00" fill="#dcb428" stroke="#000000" stroke-width="0.3"/><circle cx="39.63" cy="106.87" r="1.00" fill="#dcb428" stroke="#000000" stroke-width="0.3"/><circle cx="67.28" cy="145.18" r="1.00" fill="#dcb428" stroke="#000000" stroke-width="0.3"/><circle cx="67.91" cy="173.40" r="1.00" fill="#dcb428" stroke="#000000" stroke-width="0.3"/><circle cx="58.98" cy="181.05" r="1.00" fill="#dcb428" stroke="#000000" stroke-width="0.3"/><circle cx="47.24" cy="66.81" r="1.00" fill="#dcb428" stroke="#000000" stroke-width="0.3"/><circle cx="74.60" cy="67.91" r="1.00" fill="#dcb428" stroke="#000000" stroke-width="0.3"/><circle cx="24.91" cy="195.69" r="1.00" fill="#dcb428" stroke="#000000" stroke-width="0.3"/><circle cx="24.91" cy="172.06" r="1.00" fill="#dcb428" stroke="#000000" stroke-width="0.3"/></svg>